<?xml version="1.0" encoding="UTF-8"?>
<svg version="1.1" xmlns="http://www.w3.org/2000/svg" width="909" height="273">
<path d="M0 0 C1.30545823 3.99262406 1.18196349 8.05584166 1.22119141 12.20922852 C1.2326973 13.03404724 1.24420319 13.85886597 1.25605774 14.7086792 C1.29270722 17.43205061 1.32237609 20.15544536 1.3515625 22.87890625 C1.37468199 24.77172671 1.39807236 26.66454388 1.42172241 28.55735779 C1.47014741 32.5225028 1.51508393 36.48766841 1.55761719 40.45288086 C1.61249021 45.53968112 1.67632081 50.62632281 1.74279213 55.71298313 C1.79282011 59.62049918 1.83796296 63.52805997 1.88163376 67.43565178 C1.9032196 69.31159238 1.92636998 71.18751564 1.9510994 73.06341743 C1.98492055 75.68230694 2.01213782 78.3011837 2.03759766 80.92016602 C2.04897263 81.69790878 2.0603476 82.47565155 2.07206726 83.27696228 C2.13057078 90.73897874 2.13057078 90.73897874 -0.625 93.8125 C-3 95 -3 95 -6.75 94.1875 C-7.8225 93.795625 -8.895 93.40375 -10 93 C-10 92.34 -10 91.68 -10 91 C-12.97 90.01 -12.97 90.01 -16 89 C-16 88.34 -16 87.68 -16 87 C-18.97 86.01 -18.97 86.01 -22 85 C-22.556875 85.75023438 -23.11375 86.50046875 -23.6875 87.2734375 C-36.21185012 104.07129898 -49.54779056 120.83823245 -66 134 C-66.66 134.66 -67.32 135.32 -68 136 C-70.17832449 137.49786556 -72.3953643 138.92874221 -74.61328125 140.3671875 C-77.05337183 141.98764009 -77.05337183 141.98764009 -79.40625 143.9609375 C-82.21394415 146.16819103 -85.10098454 147.95560344 -88.1875 149.75 C-89.75564453 150.67039063 -89.75564453 150.67039063 -91.35546875 151.609375 C-94 153 -94 153 -96 153 C-96.33 153.66 -96.66 154.32 -97 155 C-99.33333333 155.66666667 -101.66666667 156.33333333 -104 157 C-104.33 157.66 -104.66 158.32 -105 159 C-108.0318856 160.88186002 -109.24517355 161 -113 161 C-113.33 161.66 -113.66 162.32 -114 163 C-117.45043117 164.15014372 -120.35282355 165 -124 165 C-124 165.66 -124 166.32 -124 167 C-127.43515002 167.62457273 -130.49064814 168 -134 168 C-134 168.66 -134 169.32 -134 170 C-135.670625 170.2165625 -135.670625 170.2165625 -137.375 170.4375 C-140.82142047 170.78372035 -140.82142047 170.78372035 -143 172 C-144.11375 172.2165625 -144.11375 172.2165625 -145.25 172.4375 C-148.09360418 172.94765506 -148.09360418 172.94765506 -151.0625 174.125 C-154.28266238 175.0841973 -154.89526309 174.77892693 -158 174 C-160.10368674 173.95506143 -162.20869155 173.96117539 -164.3125 174 C-166.87499438 174.00536648 -169.43750499 174.00505922 -172 174 C-172.67756348 174.0009668 -173.35512695 174.00193359 -174.05322266 174.00292969 C-176.07921866 173.99236512 -178.10005774 173.93892714 -180.125 173.875 C-181.34445313 173.85179687 -182.56390625 173.82859375 -183.8203125 173.8046875 C-187 173 -187 173 -189.4296875 169.9453125 C-189.94789063 168.97335938 -190.46609375 168.00140625 -191 167 C-189.99231717 164.21819685 -189.34974877 163.18353409 -186.68774414 161.78662109 C-185.72989014 161.45227051 -184.77203613 161.11791992 -183.78515625 160.7734375 C-182.71499268 160.38631592 -181.6448291 159.99919434 -180.54223633 159.6003418 C-179.39392334 159.195979 -178.24561035 158.79161621 -177.0625 158.375 C-168.55415865 155.24708001 -160.31639507 151.95743328 -152.3125 147.6875 C-151.19403687 147.09364502 -151.19403687 147.09364502 -150.05297852 146.48779297 C-145.44231216 143.96576429 -141.23519402 141.10898138 -137 138 C-135.33720673 136.9935725 -133.67016516 135.99414593 -132 135 C-126.05497773 131.25024544 -120.56388592 127.1365716 -115.1640625 122.63671875 C-113 121 -113 121 -110 120 C-110 119.34 -110 118.68 -110 118 C-108.29781633 116.50618709 -106.53677109 115.07902984 -104.75 113.6875 C-100.94031875 110.71937533 -97.92006753 107.84454306 -95 104 C-93.33333333 102.33333333 -91.66666667 100.66666667 -90 99 C-86.08155047 94.79504286 -86.08155047 94.79504286 -83 90 C-82.34 90 -81.68 90 -81 90 C-81 89.34 -81 88.68 -81 88 C-80.34 88 -79.68 88 -79 88 C-78.690625 87.38125 -78.38125 86.7625 -78.0625 86.125 C-77.375 84.75 -76.6875 83.375 -76 82 C-75.34 82 -74.68 82 -74 82 C-73.71125 81.4225 -73.4225 80.845 -73.125 80.25 C-72.08333333 78.16666667 -71.04166667 76.08333333 -70 74 C-69.34 74 -68.68 74 -68 74 C-67.505 72.02 -67.505 72.02 -67 70 C-66.34 70 -65.68 70 -65 70 C-64.71125 69.2575 -64.4225 68.515 -64.125 67.75 C-63.17697356 65.43260203 -62.15154089 63.22082885 -61 61 C-62.2065625 59.824375 -62.2065625 59.824375 -63.4375 58.625 C-66 56 -66 56 -67 54 C-68.99054876 53.30562253 -70.99255385 52.64389782 -73 52 C-76.3125 50.625 -76.3125 50.625 -79 49 C-79.66796875 46.8984375 -79.66796875 46.8984375 -80 45 C-78.19322278 43.59676693 -76.3792261 42.20282846 -74.5625 40.8125 C-73.55316406 40.03519531 -72.54382813 39.25789063 -71.50390625 38.45703125 C-68.36373814 36.16828823 -65.07479366 34.31183101 -61.66186523 32.4621582 C-56.59656324 29.67979614 -51.62910607 26.72373064 -46.64501953 23.79907227 C-44.76829945 22.69823401 -42.89007477 21.59999707 -41.01171875 20.50195312 C-33.92129945 16.34940259 -26.88660734 12.11955784 -19.9050293 7.78637695 C-6.61626237 -0.38522634 -6.61626237 -0.38522634 0 0 Z " fill="#236DE0" transform="translate(215,17)"/>
<path d="M0 0 C4.75 1.875 4.75 1.875 7 3 C7.66533316 32.98093581 5.04855518 60.52263673 -10 87 C-10.5775 88.01707031 -11.155 89.03414063 -11.75 90.08203125 C-15.78210531 96.75553888 -20.62621638 102.37492434 -26 108 C-26.55171875 108.62648438 -27.1034375 109.25296875 -27.671875 109.8984375 C-35.48456787 118.44598762 -46.99420717 124.63352219 -58 128 C-60.84375 128.125 -60.84375 128.125 -63 128 C-63 128.66 -63 129.32 -63 130 C-66.93748458 130.02898816 -70.87494179 130.04679464 -74.8125 130.0625 C-76.49182617 130.07506836 -76.49182617 130.07506836 -78.20507812 130.08789062 C-79.27822266 130.09111328 -80.35136719 130.09433594 -81.45703125 130.09765625 C-82.44678955 130.10289307 -83.43654785 130.10812988 -84.45629883 130.11352539 C-87 130 -87 130 -90 129 C-90.8125 127.125 -90.8125 127.125 -91 125 C-88.76653001 121.64979501 -87.19714502 120.79442991 -83.6875 118.9375 C-82.74261719 118.43089844 -81.79773438 117.92429687 -80.82421875 117.40234375 C-78.25311377 116.12568167 -75.68135867 115.02077225 -73 114 C-73 113.34 -73 112.68 -73 112 C-67.58823529 108 -67.58823529 108 -65 108 C-65 107.34 -65 106.68 -65 106 C-63.91573065 105.01567727 -62.77934586 104.08861979 -61.625 103.1875 C-57.70988081 99.87578628 -54.60791691 96.23604407 -51.5 92.1875 C-50.83218506 91.32451294 -50.83218506 91.32451294 -50.15087891 90.4440918 C-47.75308302 87.54222324 -47.75308302 87.54222324 -47 84 C-46.34 84 -45.68 84 -45 84 C-45.33 83.01 -45.66 82.02 -46 81 C-46.63550781 81.54140625 -47.27101563 82.0828125 -47.92578125 82.640625 C-51.84335709 85.64725245 -55.97158794 88.18613329 -60.1875 90.75 C-61.00669922 91.25660156 -61.82589844 91.76320313 -62.66992188 92.28515625 C-63.45302734 92.76339844 -64.23613281 93.24164063 -65.04296875 93.734375 C-65.75477295 94.16975586 -66.46657715 94.60513672 -67.19995117 95.05371094 C-69 96 -69 96 -71 96 C-71.33 96.66 -71.66 97.32 -72 98 C-77.12139467 101.09598435 -82.03046437 103.289341 -88 104 C-89.34187818 104.6492959 -90.67479497 105.31731862 -92 106 C-94.32873375 106.68255989 -96.66182791 107.35050775 -99 108 C-99.99 108.495 -99.99 108.495 -101 109 C-101.90492187 108.76990234 -101.90492187 108.76990234 -102.828125 108.53515625 C-105.34394758 107.91525033 -107.18706027 108.10692975 -109.75 108.4375 C-121.63737624 109.78754125 -121.63737624 109.78754125 -127 108 C-127 108.66 -127 109.32 -127 110 C-127.66 110 -128.32 110 -129 110 C-129 109.34 -129 108.68 -129 108 C-130.60875 108.0309375 -130.60875 108.0309375 -132.25 108.0625 C-135.14790424 108.0142016 -137.28612141 107.86844115 -140 107 C-140 106.34 -140 105.68 -140 105 C-140.928125 104.855625 -141.85625 104.71125 -142.8125 104.5625 C-146 104 -146 104 -149 103 C-149 102.34 -149 101.68 -149 101 C-150.485 101.495 -150.485 101.495 -152 102 C-155.1875 99.6875 -155.1875 99.6875 -158 97 C-158 96.34 -158 95.68 -158 95 C-158.804375 94.773125 -159.60875 94.54625 -160.4375 94.3125 C-163 93 -163 93 -164 90.5625 C-164 88 -164 88 -162.98046875 86.3671875 C-159.9680648 84.2876187 -156.8497686 84.59828051 -153.3125 84.5625 C-127.89883007 83.6725779 -103.76416033 77.13979972 -81 66 C-80.28215332 65.65066406 -79.56430664 65.30132812 -78.82470703 64.94140625 C-59.80498721 55.5709871 -41.90791976 43.12787268 -27 28 C-25.19399318 26.38852667 -23.38134363 24.78447051 -21.5625 23.1875 C-17.61155174 19.62369164 -14.31285496 16.10011112 -11.26953125 11.75 C-9.43868079 9.22624306 -7.25984871 7.13769473 -5 5 C-4.443125 4.401875 -3.88625 3.80375 -3.3125 3.1875 C-2 2 -2 2 0 2 C0 1.34 0 0.68 0 0 Z " fill="#19B769" transform="translate(201,129)"/>
<path d="M0 0 C-16.95798172 54.86735377 -16.95798172 54.86735377 -21.875 70.36035156 C-22.70290232 73.0388168 -23.490775 75.71535511 -24.25 78.41308594 C-24.46362183 79.14989594 -24.67724365 79.88670593 -24.89733887 80.64584351 C-25.31195492 82.07829686 -25.7133336 83.51466515 -26.09973145 84.95498657 C-26.67382812 86.90771484 -26.67382812 86.90771484 -28 90 C-30.97507984 91.57743732 -34.32695459 91.03753941 -37.640625 90.87890625 C-39.24550781 90.80639648 -39.24550781 90.80639648 -40.8828125 90.73242188 C-41.99398437 90.67634766 -43.10515625 90.62027344 -44.25 90.5625 C-45.37664062 90.51029297 -46.50328125 90.45808594 -47.6640625 90.40429688 C-50.44299972 90.27477014 -53.22156424 90.13980947 -56 90 C-59.39868338 79.85399182 -59.39868338 79.85399182 -60.6875 75.6875 C-60.93886719 74.88699219 -61.19023438 74.08648437 -61.44921875 73.26171875 C-62 71 -62 71 -62 67 C-62.66 66.67 -63.32 66.34 -64 66 C-64.7109375 63.8828125 -64.7109375 63.8828125 -65.375 61.125 C-66.6540197 56.0876301 -68.30759842 51.33299273 -70.23046875 46.5078125 C-71.03974359 43.87048028 -71.14248925 41.74168976 -71 39 C-71.66 39 -72.32 39 -73 39 C-73.11206284 39.5446843 -73.22412567 40.08936859 -73.33958435 40.65055847 C-74.52771341 46.22976622 -76.03515398 51.62419956 -77.78515625 57.05078125 C-78.04630722 57.87200974 -78.30745819 58.69323822 -78.57652283 59.53935242 C-79.40151258 62.13158895 -80.23172985 64.72211085 -81.0625 67.3125 C-81.89589187 69.92103342 -82.72816502 72.52991715 -83.55918884 75.13920593 C-84.07401154 76.75463113 -84.59035226 78.36957355 -85.1084137 79.98396301 C-86.16954983 83.30486301 -87.18092604 86.61149622 -88 90 C-92.43737712 90.08690253 -96.87453634 90.14035926 -101.3125 90.1875 C-103.20645508 90.22520508 -103.20645508 90.22520508 -105.13867188 90.26367188 C-106.34716797 90.27333984 -107.55566406 90.28300781 -108.80078125 90.29296875 C-109.91622314 90.3086792 -111.03166504 90.32438965 -112.1809082 90.34057617 C-115 90 -115 90 -116.85986328 88.66186523 C-118.58205062 86.15160201 -118.45026728 83.87994069 -118.5625 80.875 C-118.64514087 77.71796648 -118.64514087 77.71796648 -119 75 C-119.66 74.67 -120.32 74.34 -121 74 C-121.3911938 71.93734178 -121.50674519 69.90556733 -121.65625 67.8125 C-121.7696875 67.214375 -121.883125 66.61625 -122 66 C-122.66 65.67 -123.32 65.34 -124 65 C-125.26761762 60.70418473 -126 57.49055702 -126 53 C-126.66 52.67 -127.32 52.34 -128 52 C-128.5625 49.75 -128.5625 49.75 -129 47 C-129.185625 46.071875 -129.37125 45.14375 -129.5625 44.1875 C-129.706875 43.465625 -129.85125 42.74375 -130 42 C-130.99 41.67 -131.98 41.34 -133 41 C-133.11786865 39.845 -133.2357373 38.69 -133.35717773 37.5 C-133.90157709 33.16717367 -134.98021444 29.15809256 -136.28515625 25 C-136.50570175 24.2788501 -136.72624725 23.5577002 -136.95347595 22.81469727 C-137.65031057 20.54117807 -138.35622458 18.27060188 -139.0625 16 C-139.54032012 14.44680106 -140.01753925 12.8934171 -140.49414062 11.33984375 C-141.65473004 7.55733147 -142.82759071 3.77894537 -144 0 C-134.76 0 -125.52 0 -116 0 C-114.824375 3.815625 -113.64875 7.63125 -112.4375 11.5625 C-112.04804199 12.82578125 -111.65858398 14.0890625 -111.25732422 15.390625 C-109.47066491 21.19318569 -107.69459656 26.99855299 -105.9453125 32.8125 C-105.62763916 33.86622803 -105.30996582 34.91995605 -104.98266602 36.00561523 C-104.37632201 38.01995149 -103.77257937 40.03507289 -103.17163086 42.05102539 C-102.89971924 42.95328857 -102.62780762 43.85555176 -102.34765625 44.78515625 C-102.11054932 45.57801025 -101.87344238 46.37086426 -101.62915039 47.18774414 C-101.14877921 48.99658494 -101.14877921 48.99658494 -100 50 C-92.69786334 32.31861764 -92.69786334 32.31861764 -89 14 C-88.34 14 -87.68 14 -87 14 C-87 12.02 -87 10.04 -87 8 C-86.34 8 -85.68 8 -85 8 C-84.67 5.36 -84.34 2.72 -84 0 C-75.75 0 -67.5 0 -59 0 C-57.39318359 5.16269531 -57.39318359 5.16269531 -55.75390625 10.4296875 C-54.71842783 13.75256949 -53.6823629 17.07526806 -52.64624023 20.39794922 C-51.92492248 22.71221086 -51.2042173 25.02666353 -50.48413086 27.34130859 C-49.4506566 30.66293611 -48.41500136 33.9838767 -47.37890625 37.3046875 C-46.89448814 38.86411575 -46.89448814 38.86411575 -46.40028381 40.45504761 C-46.10004807 41.41589264 -45.79981232 42.37673767 -45.49047852 43.36669922 C-45.22622574 44.21497284 -44.96197296 45.06324646 -44.68971252 45.93722534 C-44.04393879 48.02921033 -44.04393879 48.02921033 -43 50 C-41.9929564 46.8980736 -40.99559195 43.79311902 -40 40.6875 C-39.71382812 39.80642578 -39.42765625 38.92535156 -39.1328125 38.01757812 C-38.86210938 37.17001953 -38.59140625 36.32246094 -38.3125 35.44921875 C-38.06113281 34.66893311 -37.80976562 33.88864746 -37.55078125 33.0847168 C-36.87228247 30.87596151 -36.87228247 30.87596151 -37 28 C-36.34 28 -35.68 28 -35 28 C-34.81824219 27.03900391 -34.81824219 27.03900391 -34.6328125 26.05859375 C-32.88399038 17.03198113 -30.20652943 8.60781928 -27 0 C-23.81310715 -0.19892707 -20.62548809 -0.38204784 -17.4375 -0.5625 C-16.54224609 -0.61857422 -15.64699219 -0.67464844 -14.72460938 -0.73242188 C-13.84482422 -0.78076172 -12.96503906 -0.82910156 -12.05859375 -0.87890625 C-11.25736084 -0.9260376 -10.45612793 -0.97316895 -9.63061523 -1.02172852 C-6.35885335 -0.99470422 -3.22735863 -0.51450645 0 0 Z M-132 39 C-131 41 -131 41 -131 41 Z M-101 51 C-100 54 -100 54 -100 54 Z " fill="#19B769" transform="translate(895,111)"/>
<path d="M0 0 C1.87508294 2.25350104 3.4061631 4.53212351 5 7 C5.66 7 6.32 7 7 7 C7.185625 8.08087891 7.185625 8.08087891 7.375 9.18359375 C7.99711118 11.98698223 8.91165756 14.4096653 10 17.0625 C14.61901954 29.65522845 13.64334131 43.34322603 8.25390625 55.59375 C2.63553228 66.37542714 -4.80819155 74.17594463 -16 79 C-16.66 79 -17.32 79 -18 79 C-18 79.66 -18 80.32 -18 81 C-19.98567708 81.22786458 -21.97135417 81.45572917 -23.95703125 81.68359375 C-26.19396393 81.97170735 -26.19396393 81.97170735 -29 83 C-38.20349442 83.50590033 -46.39422364 83.59061871 -55 80 C-55.928125 79.855625 -56.85625 79.71125 -57.8125 79.5625 C-60.75489241 78.80588481 -61.90211185 77.16146052 -64 75 C-65.96879323 73.93988057 -67.96435867 72.92529151 -70 72 C-70 71.34 -70 70.68 -70 70 C-70.66 69.67 -71.32 69.34 -72 69 C-81.69151366 56.7790297 -86.17240992 42.22832326 -84.79296875 26.6640625 C-84.34586649 24.68344126 -83.73849115 22.89215393 -83 21 C-82.66871094 20.07832031 -82.33742188 19.15664062 -81.99609375 18.20703125 C-77.61336987 6.79459183 -71.99059975 -2.13137812 -61 -8 C-39.85019651 -17.25303903 -17.75360435 -15.86747101 0 0 Z M-52.9296875 16.34765625 C-55.69332978 20.73113672 -57.77154185 24.74546261 -58 30 C-58.061875 31.258125 -58.12375 32.51625 -58.1875 33.8125 C-58.06497892 40.9459494 -56.6879303 48.4078695 -52 54 C-46.95231459 58.41815548 -41.68121577 60.23700259 -35 60 C-31.16483534 59.44270264 -27.48034759 58.7401738 -24 57 C-24 56.34 -24 55.68 -24 55 C-23.4225 54.79375 -22.845 54.5875 -22.25 54.375 C-18.7345643 52.22667818 -16.60865687 48.98011419 -15.39941406 45.04614258 C-14.73035048 41.61862309 -14.77405567 38.16655061 -14.75 34.6875 C-14.729375 33.95337891 -14.70875 33.21925781 -14.6875 32.46289062 C-14.64086011 25.89249636 -16.32442407 21.5133639 -20 16 C-20.66 16 -21.32 16 -22 16 C-22.2475 15.1028125 -22.2475 15.1028125 -22.5 14.1875 C-24.84226101 10.7717027 -28.13759885 9.93069907 -32 9 C-39.98246192 7.68153232 -47.70461915 9.99084232 -52.9296875 16.34765625 Z " fill="#19B86A" transform="translate(740,122)"/>
<path d="M0 0 C24.75 0 49.5 0 75 0 C75 8.25 75 16.5 75 25 C70.6996875 24.9690625 70.6996875 24.9690625 66.3125 24.9375 C57.87631606 24.90229643 49.48809428 25.18654056 41.06958008 25.73217773 C40.24611084 25.78059814 39.4226416 25.82901855 38.57421875 25.87890625 C37.85838623 25.9260376 37.14255371 25.97316895 36.4050293 26.02172852 C33.251703 25.99323942 30.12176117 25.44596588 27 25 C27 34.57 27 44.14 27 54 C41.19 54 55.38 54 70 54 C70 61.59 70 69.18 70 77 C59.82687034 77.57719885 49.69026756 78.10105342 39.5 78.125 C38.7061792 78.12951172 37.9123584 78.13402344 37.09448242 78.13867188 C33.4916497 78.12929255 30.52032249 77.88008062 27 77 C27.33 92.51 27.66 108.02 28 124 C24.3705102 124.90737245 22.02803783 125.05453373 18.359375 124.87890625 C16.75449219 124.80639648 16.75449219 124.80639648 15.1171875 124.73242188 C14.00601563 124.67634766 12.89484375 124.62027344 11.75 124.5625 C10.62335937 124.51029297 9.49671875 124.45808594 8.3359375 124.40429688 C5.55700028 124.27477014 2.77843576 124.13980947 0 124 C-1.23588783 118.23681711 -1.1405907 112.56493176 -1.12939453 106.70214844 C-1.13114685 105.57307068 -1.13289917 104.44399292 -1.13470459 103.28070068 C-1.13909824 99.55690973 -1.13619463 95.83316642 -1.1328125 92.109375 C-1.13348606 89.52199291 -1.13445653 86.93461088 -1.13571167 84.347229 C-1.13718511 78.93037249 -1.13514023 73.51353388 -1.13037109 68.09667969 C-1.12491852 61.83113253 -1.12670051 55.56561786 -1.1321975 49.30007148 C-1.13727644 43.26978845 -1.13674675 37.23952136 -1.13381577 31.20923615 C-1.13314703 28.64308925 -1.13397305 26.07694153 -1.13629532 23.51079559 C-1.13882273 19.93393219 -1.13498046 16.3571321 -1.12939453 12.78027344 C-1.13141876 11.71220459 -1.13344299 10.64413574 -1.13552856 9.54370117 C-1.13270874 8.57358093 -1.12988892 7.60346069 -1.12698364 6.60394287 C-1.12660662 5.75815548 -1.12622959 4.91236809 -1.12584114 4.04095078 C-1 2 -1 2 0 0 Z " fill="#1AB96B" transform="translate(533,77)"/>
<path d="M0 0 C7.77383409 6.85227058 10.21747159 15.77051783 11.04296875 25.80078125 C11.17479343 30.29089414 11.15951307 34.77781835 11.140625 39.26953125 C11.13921005 40.54558228 11.1377951 41.8216333 11.13633728 43.13635254 C11.13170886 46.50316281 11.12274846 49.86990332 11.1116333 53.23669434 C11.10134205 56.68252962 11.09676817 60.12837236 11.09179688 63.57421875 C11.08165514 70.3164451 11.06207457 77.05855057 11.04296875 83.80078125 C2.79296875 83.80078125 -5.45703125 83.80078125 -13.95703125 83.80078125 C-13.95703125 81.82078125 -13.95703125 79.84078125 -13.95703125 77.80078125 C-14.97410156 78.48914063 -14.97410156 78.48914063 -16.01171875 79.19140625 C-22.11932091 83.21802485 -28.04869342 86.38810795 -34.95703125 88.80078125 C-35.28703125 88.47078125 -35.61703125 88.14078125 -35.95703125 87.80078125 C-37.43352001 87.70254129 -38.91478542 87.67104606 -40.39453125 87.67578125 C-41.19761719 87.67320312 -42.00070312 87.670625 -42.828125 87.66796875 C-45.01101056 87.66499799 -45.01101056 87.66499799 -46.95703125 88.80078125 C-46.95703125 88.14078125 -46.95703125 87.48078125 -46.95703125 86.80078125 C-49.26703125 86.80078125 -51.57703125 86.80078125 -53.95703125 86.80078125 C-53.95703125 86.14078125 -53.95703125 85.48078125 -53.95703125 84.80078125 C-55.81328125 84.42953125 -55.81328125 84.42953125 -57.70703125 84.05078125 C-63.14217105 82.66328958 -65.36390636 79.91759096 -68.20703125 75.23828125 C-69.95703125 71.80078125 -69.95703125 71.80078125 -69.95703125 68.80078125 C-70.61703125 68.47078125 -71.27703125 68.14078125 -71.95703125 67.80078125 C-73.66701284 60.60085875 -72.95984769 54.4810557 -69.95703125 47.80078125 C-69.68503906 47.13949219 -69.41304688 46.47820312 -69.1328125 45.796875 C-64.30939184 37.60827713 -54.36651341 33.59630681 -45.65625 31.15625 C-35.66782294 28.94190971 -25.14283399 29.1424057 -14.95703125 28.80078125 C-15.28703125 25.50078125 -15.61703125 22.20078125 -15.95703125 18.80078125 C-16.94703125 18.47078125 -17.93703125 18.14078125 -18.95703125 17.80078125 C-19.43140625 17.30578125 -19.90578125 16.81078125 -20.39453125 16.30078125 C-23.8412863 12.99189641 -28.97364756 13.52888571 -33.484375 13.58203125 C-37.88125503 13.97101274 -40.78691799 15.54997053 -43.76953125 18.73828125 C-44.94561164 20.78094719 -45.54429541 22.48946054 -45.95703125 24.80078125 C-47.38015625 24.76984375 -47.38015625 24.76984375 -48.83203125 24.73828125 C-51.86369408 24.57526299 -51.86369408 24.57526299 -53.95703125 25.80078125 C-54.28703125 24.81078125 -54.61703125 23.82078125 -54.95703125 22.80078125 C-56.93703125 22.47078125 -58.91703125 22.14078125 -60.95703125 21.80078125 C-60.95703125 21.14078125 -60.95703125 20.48078125 -60.95703125 19.80078125 C-61.92640625 19.67703125 -62.89578125 19.55328125 -63.89453125 19.42578125 C-65.41046875 19.11640625 -65.41046875 19.11640625 -66.95703125 18.80078125 C-68.55734469 15.60015438 -66.98876816 13.07806319 -65.95703125 9.80078125 C-65.29703125 9.80078125 -64.63703125 9.80078125 -63.95703125 9.80078125 C-63.73015625 9.07890625 -63.50328125 8.35703125 -63.26953125 7.61328125 C-61.69367997 4.23645708 -59.74826509 2.24311086 -56.95703125 -0.19921875 C-56.29703125 -0.19921875 -55.63703125 -0.19921875 -54.95703125 -0.19921875 C-54.62703125 -1.18921875 -54.29703125 -2.17921875 -53.95703125 -3.19921875 C-38.36618915 -11.53161654 -14.2841146 -10.18849236 0 0 Z M-44.51953125 50.48828125 C-46.24303515 53.26087448 -46.57360796 55.57887668 -46.421875 58.83203125 C-45.63742728 62.15439805 -43.55967667 63.75584556 -40.95703125 65.80078125 C-36.37581598 68.09138888 -29.44056919 67.51154419 -24.609375 66.12890625 C-22.53191248 65.25798325 -22.53191248 65.25798325 -19.95703125 63.80078125 C-19.95703125 63.14078125 -19.95703125 62.48078125 -19.95703125 61.80078125 C-19.29703125 61.80078125 -18.63703125 61.80078125 -17.95703125 61.80078125 C-17.95703125 61.14078125 -17.95703125 60.48078125 -17.95703125 59.80078125 C-17.29703125 59.47078125 -16.63703125 59.14078125 -15.95703125 58.80078125 C-14.53799009 54.25984953 -14.86476282 49.50647135 -14.95703125 44.80078125 C-30.4550524 44.77077351 -30.4550524 44.77077351 -44.51953125 50.48828125 Z " fill="#236DDE" transform="translate(404.95703125,117.19921875)"/>
<path d="M0 0 C31.68 0 63.36 0 96 0 C96.83856598 3.3542639 97.08073332 5.22794099 96.87890625 8.546875 C96.83056641 9.39121094 96.78222656 10.23554687 96.73242188 11.10546875 C96.64831055 12.41451172 96.64831055 12.41451172 96.5625 13.75 C96.51029297 14.63816406 96.45808594 15.52632812 96.40429688 16.44140625 C96.27498267 18.62799196 96.14003358 20.81407894 96 23 C96.66 23.33 97.32 23.66 98 24 C92.39590271 25.24211258 86.84467005 25.39098221 81.125 25.625 C79.52978516 25.70234375 79.52978516 25.70234375 77.90234375 25.78125 C76.34580078 25.84699219 76.34580078 25.84699219 74.7578125 25.9140625 C73.8208252 25.9548291 72.88383789 25.9955957 71.91845703 26.03759766 C69 26 69 26 62 25 C62.33 57.67 62.66 90.34 63 124 C54.42 124 45.84 124 37 124 C35.875 115 35.875 115 35.87974548 111.62121582 C35.87837082 110.85294464 35.87699615 110.08467346 35.87557983 109.29312134 C35.88097275 108.07391495 35.88097275 108.07391495 35.88647461 106.83007812 C35.88632858 105.95108856 35.88618256 105.072099 35.8860321 104.16647339 C35.88672359 101.28803967 35.89447991 98.40967229 35.90234375 95.53125 C35.90421065 93.52486201 35.90563327 91.51847357 35.90663147 89.51208496 C35.91043524 84.25141118 35.92024712 78.99076534 35.93133545 73.73010254 C35.94159572 68.35392637 35.94613895 62.97774565 35.95117188 57.6015625 C35.96187143 47.06769611 35.97892198 36.53385038 36 26 C34.91992676 25.98018066 33.83985352 25.96036133 32.72705078 25.93994141 C28.72746087 25.86398377 24.72823948 25.77525184 20.72900391 25.68261719 C18.99665593 25.64428659 17.26422726 25.60944094 15.53173828 25.578125 C13.04430251 25.53256235 10.55742434 25.47455497 8.0703125 25.4140625 C7.29317902 25.40251129 6.51604553 25.39096008 5.71536255 25.37905884 C0.22774341 25.22774341 0.22774341 25.22774341 -2 23 C-1.69650417 21.65956008 -1.35412344 20.32796291 -1 19 C-0.95575914 16.50039148 -0.9606348 13.99969006 -1 11.5 C-1.06587814 7.31673782 -1.01841143 4.07364573 0 0 Z " fill="#236DE0" transform="translate(251,77)"/>
<path d="M0 0 C9.53241724 -1.58079172 19.65797781 -3.02947363 29 0 C36.92295683 6.39050692 41.66631286 15.96146902 46 25 C49.70001673 20.82258671 53.0741212 16.62498383 56.125 11.9375 C56.76695312 10.95652344 57.40890625 9.97554687 58.0703125 8.96484375 C60.04524302 6.01900137 60.04524302 6.01900137 61.69970703 2.85131836 C64 0 64 0 67.11621094 -0.68115234 C68.90720215 -0.634021 68.90720215 -0.634021 70.734375 -0.5859375 C72.02988281 -0.56660156 73.32539063 -0.54726562 74.66015625 -0.52734375 C76.02346165 -0.477215 77.38674289 -0.42642536 78.75 -0.375 C80.12884865 -0.34489131 81.5077599 -0.31751703 82.88671875 -0.29296875 C86.25939731 -0.22221326 89.62890827 -0.12351802 93 0 C91.78783328 3.30393681 90.48958498 5.95285358 88.3125 8.71484375 C87.51875977 9.73396851 87.51875977 9.73396851 86.70898438 10.77368164 C86.14501953 11.4877417 85.58105469 12.20180176 85 12.9375 C83.8212184 14.45441098 82.64415711 15.97266024 81.46875 17.4921875 C80.88351562 18.24854492 80.29828125 19.00490234 79.6953125 19.78417969 C75.6429381 25.08074508 71.80858764 30.52691851 68 36 C67.11054688 37.22203125 67.11054688 37.22203125 66.203125 38.46875 C64.57615744 40.7121138 64.57615744 40.7121138 63 44 C64.0841637 47.81825992 66.07643283 50.80131908 68.34375 54.02734375 C69.00882568 54.97826904 69.67390137 55.92919434 70.35913086 56.90893555 C71.06561768 57.90836182 71.77210449 58.90778809 72.5 59.9375 C73.21744385 60.96206299 73.9348877 61.98662598 74.67407227 63.04223633 C77.83346678 67.54587283 81.01164218 72.03429754 84.24609375 76.484375 C84.70886719 77.1225415 85.17164063 77.76070801 85.6484375 78.41821289 C86.85117356 80.06901369 88.06388262 81.71253557 89.27734375 83.35546875 C90.80015899 85.6932146 91.59023167 87.27471539 92 90 C87.18629169 91.60456944 82.29237319 91.35087155 77.25 91.4375 C76.1775 91.48326172 75.105 91.52902344 74 91.57617188 C68.75119329 91.65050842 65.00925501 91.63776393 60.8515625 88.203125 C56.99293829 84.39857681 55.68936255 80.06808765 54 75 C53.34 75 52.68 75 52 75 C50.35 72.03 48.7 69.06 47 66 C46.34 66 45.68 66 45 66 C43.29159659 67.9989532 43.29159659 67.9989532 41.5 70.625 C40.76265625 71.61242187 40.0253125 72.59984375 39.265625 73.6171875 C37.60531811 75.95417408 36.38527803 78.2601565 35.234375 80.8828125 C33.1686036 85.12906138 31.29772405 88.73266642 27 91 C17.76962087 92.49643597 8.20932016 91.19894571 -1 90 C0.32 87.36 1.64 84.72 3 82 C3.66 82 4.32 82 5 82 C5.268125 81.44828125 5.53625 80.8965625 5.8125 80.328125 C7.12796584 77.74911961 8.53849162 75.24917932 10 72.75 C10.515625 71.85796875 11.03125 70.9659375 11.5625 70.046875 C12.036875 69.37140625 12.51125 68.6959375 13 68 C13.66 68 14.32 68 15 68 C15.20109375 67.33871094 15.4021875 66.67742187 15.609375 65.99609375 C17.89083979 61.08069068 21.53512941 57.103196 25.0078125 52.97070312 C28.27850554 49.0127251 28.27850554 49.0127251 28.7734375 44.11328125 C26.20785401 39.60938247 23.36006753 35.36022402 20.375 31.125 C19.76398438 30.24585938 19.15296875 29.36671875 18.5234375 28.4609375 C17.02204517 26.30268602 15.51413543 24.14932129 14 22 C13.34 22.33 12.68 22.66 12 23 C11.9175 22.278125 11.835 21.55625 11.75 20.8125 C10.83820572 17.39327146 9.23272782 15.73509158 7 13 C5.72244851 11.12262251 4.47202568 9.22648466 3.25 7.3125 C2.63640625 6.35988281 2.0228125 5.40726562 1.390625 4.42578125 C0 2 0 2 0 0 Z " fill="#246DDF" transform="translate(427,111)"/>
<path d="M0 0 C1.02802734 0.00322266 2.05605469 0.00644531 3.11523438 0.00976562 C4.72301758 0.02233398 4.72301758 0.02233398 6.36328125 0.03515625 C7.44673828 0.03966797 8.53019531 0.04417969 9.64648438 0.04882812 C12.3229721 0.06061882 14.99934902 0.07707562 17.67578125 0.09765625 C18.95940098 5.94414298 18.75064646 11.71211534 18.67578125 17.66015625 C18.65016477 19.70307062 18.62916988 21.74604931 18.61328125 23.7890625 C18.60167969 24.68826416 18.59007812 25.58746582 18.578125 26.51391602 C18.67743487 29.14140691 19.0901825 31.53825539 19.67578125 34.09765625 C19.01578125 34.09765625 18.35578125 34.09765625 17.67578125 34.09765625 C17.82011993 35.45198304 17.96634786 36.8061085 18.11328125 38.16015625 C18.20222656 38.98 18.29117188 39.79984375 18.3828125 40.64453125 C18.63312425 42.74047494 18.95930042 44.82712318 19.30078125 46.91015625 C19.67578125 50.09765625 19.67578125 50.09765625 19.19165039 51.99902344 C18.59974102 54.40699928 18.65420889 56.39040196 18.796875 58.86328125 C18.84521484 59.75273437 18.89355469 60.6421875 18.94335938 61.55859375 C18.99943359 62.47898438 19.05550781 63.399375 19.11328125 64.34765625 C19.16548828 65.28351563 19.21769531 66.219375 19.27148438 67.18359375 C19.4008495 69.48864512 19.53580159 71.79322914 19.67578125 74.09765625 C19.01578125 74.09765625 18.35578125 74.09765625 17.67578125 74.09765625 C18.02640625 75.31453125 18.37703125 76.53140625 18.73828125 77.78515625 C19.75330882 81.30789899 19.42721082 83.53743477 18.67578125 87.09765625 C18.58453647 89.51295919 18.54572472 91.9306357 18.55078125 94.34765625 C18.54820312 95.5903125 18.545625 96.83296875 18.54296875 98.11328125 C18.33420017 100.98106538 18.33420017 100.98106538 19.67578125 102.09765625 C19.52526819 105.31863582 19.26916176 108.51483968 18.9921875 111.7265625 C18.85094698 113.51446074 18.75949684 115.30614273 18.67578125 117.09765625 C19.17078125 117.59265625 19.17078125 117.59265625 19.67578125 118.09765625 C19.71671062 120.43063058 19.71819848 122.7647085 19.67578125 125.09765625 C16.42779382 126.18031873 14.31681298 126.13201811 10.9140625 125.9765625 C9.79580078 125.92822266 8.67753906 125.87988281 7.52539062 125.83007812 C6.35814453 125.77400391 5.19089844 125.71792969 3.98828125 125.66015625 C2.80943359 125.60794922 1.63058594 125.55574219 0.41601562 125.50195312 C-2.49766286 125.37219416 -5.41095224 125.23627356 -8.32421875 125.09765625 C-9.4272561 111.53462097 -9.47088822 98.01851965 -9.45703125 84.41796875 C-9.45770614 82.06908152 -9.45867771 79.72019436 -9.45993042 77.37130737 C-9.46139461 72.48499883 -9.45929155 67.59870872 -9.45458984 62.71240234 C-9.44884881 56.43991216 -9.45220701 50.16746435 -9.45816231 43.89497566 C-9.46176489 39.06187618 -9.4606315 34.22878688 -9.45803452 29.3956871 C-9.45736669 27.08073802 -9.45818864 24.76578801 -9.46051407 22.45084 C-9.46304035 19.23429126 -9.45920235 16.01781299 -9.45361328 12.80126953 C-9.45563751 11.84241852 -9.45766174 10.8835675 -9.45974731 9.8956604 C-9.45692749 9.0241333 -9.45410767 8.1526062 -9.45120239 7.25466919 C-9.45063685 6.11608554 -9.45063685 6.11608554 -9.45005989 4.9545002 C-9.32421875 3.09765625 -9.32421875 3.09765625 -8.32421875 1.09765625 C-5.26502487 0.07792496 -3.2000385 -0.01767977 0 0 Z M17.67578125 120.09765625 C18.67578125 123.09765625 18.67578125 123.09765625 18.67578125 123.09765625 Z " fill="#1AB96B" transform="translate(627.32421875,75.90234375)"/>
<path d="M0 0 C24.75 0 49.5 0 75 0 C75 8.25 75 16.5 75 25 C58.64462037 25.13406049 42.34088506 24.61166479 26 24 C26 23.67 26 23.34 26 23 C41.51 23 57.02 23 73 23 C73 16.07 73 9.14 73 2 C49.57 2 26.14 2 2 2 C2 41.93 2 81.86 2 123 C9.59 123 17.18 123 25 123 C24.98839844 119.61878906 24.97679687 116.23757812 24.96484375 112.75390625 C24.95705425 109.4940602 24.95097688 106.23421517 24.94506836 102.97436523 C24.94002675 100.70157409 24.93319363 98.4287862 24.92456055 96.15600586 C24.91248739 92.89696449 24.90677013 89.63796583 24.90234375 86.37890625 C24.89718246 85.35599991 24.89202118 84.33309357 24.88670349 83.27919006 C24.88659019 81.86784035 24.88659019 81.86784035 24.88647461 80.42797852 C24.884254 79.59524918 24.88203339 78.76251984 24.87974548 77.90455627 C25 76 25 76 26 75 C29.10251201 74.91125865 32.1826812 74.88481545 35.28515625 74.90234375 C36.21597519 74.9037587 37.14679413 74.90517365 38.1058197 74.90663147 C41.09141191 74.91224828 44.07693029 74.9248036 47.0625 74.9375 C49.08137913 74.94251284 51.10025943 74.94707612 53.11914062 74.95117188 C58.07947871 74.96137413 63.0396563 74.98094618 68 75 C68 68.4 68 61.8 68 55 C54.14 55 40.28 55 26 55 C26 45.1 26 35.2 26 25 C26.33 25 26.66 25 27 25 C27 34.57 27 44.14 27 54 C41.19 54 55.38 54 70 54 C70 61.59 70 69.18 70 77 C59.82687034 77.57719885 49.69026756 78.10105342 39.5 78.125 C38.7061792 78.12951172 37.9123584 78.13402344 37.09448242 78.13867188 C33.4916497 78.12929255 30.52032249 77.88008062 27 77 C27.33 92.51 27.66 108.02 28 124 C24.3705102 124.90737245 22.02803783 125.05453373 18.359375 124.87890625 C16.75449219 124.80639648 16.75449219 124.80639648 15.1171875 124.73242188 C14.00601563 124.67634766 12.89484375 124.62027344 11.75 124.5625 C10.62335937 124.51029297 9.49671875 124.45808594 8.3359375 124.40429688 C5.55700028 124.27477014 2.77843576 124.13980947 0 124 C-1.23588783 118.23681711 -1.1405907 112.56493176 -1.12939453 106.70214844 C-1.13114685 105.57307068 -1.13289917 104.44399292 -1.13470459 103.28070068 C-1.13909824 99.55690973 -1.13619463 95.83316642 -1.1328125 92.109375 C-1.13348606 89.52199291 -1.13445653 86.93461088 -1.13571167 84.347229 C-1.13718511 78.93037249 -1.13514023 73.51353388 -1.13037109 68.09667969 C-1.12491852 61.83113253 -1.12670051 55.56561786 -1.1321975 49.30007148 C-1.13727644 43.26978845 -1.13674675 37.23952136 -1.13381577 31.20923615 C-1.13314703 28.64308925 -1.13397305 26.07694153 -1.13629532 23.51079559 C-1.13882273 19.93393219 -1.13498046 16.3571321 -1.12939453 12.78027344 C-1.13141876 11.71220459 -1.13344299 10.64413574 -1.13552856 9.54370117 C-1.13270874 8.57358093 -1.12988892 7.60346069 -1.12698364 6.60394287 C-1.12660662 5.75815548 -1.12622959 4.91236809 -1.12584114 4.04095078 C-1 2 -1 2 0 0 Z " fill="#189753" transform="translate(533,77)"/>
<path d="M0 0 C9.53241724 -1.58079172 19.65797781 -3.02947363 29 0 C36.92295683 6.39050692 41.66631286 15.96146902 46 25 C49.70001673 20.82258671 53.0741212 16.62498383 56.125 11.9375 C56.76695312 10.95652344 57.40890625 9.97554687 58.0703125 8.96484375 C60.04524302 6.01900137 60.04524302 6.01900137 61.69970703 2.85131836 C64 0 64 0 67.11621094 -0.68115234 C68.90720215 -0.634021 68.90720215 -0.634021 70.734375 -0.5859375 C72.02988281 -0.56660156 73.32539063 -0.54726562 74.66015625 -0.52734375 C76.02346165 -0.477215 77.38674289 -0.42642536 78.75 -0.375 C80.12884865 -0.34489131 81.5077599 -0.31751703 82.88671875 -0.29296875 C86.25939731 -0.22221326 89.62890827 -0.12351802 93 0 C91.76399014 3.38839713 90.40353122 6.06154034 88.171875 8.890625 C87.62168701 9.59646729 87.07149902 10.30230957 86.50463867 11.02954102 C85.92560791 11.76229248 85.34657715 12.49504395 84.75 13.25 C80.25681297 19.02042563 75.87575019 24.7881812 72 31 C71.505 29.515 71.505 29.515 71 28 C72.00048828 26.11816406 72.00048828 26.11816406 73.5703125 24.015625 C74.42109375 22.85933594 74.42109375 22.85933594 75.2890625 21.6796875 C75.89492188 20.87789062 76.50078125 20.07609375 77.125 19.25 C78.29433147 17.67191993 79.46360311 16.09379552 80.6328125 14.515625 C81.20032227 13.75701172 81.76783203 12.99839844 82.35253906 12.21679688 C84.61286609 9.17533728 86.80924863 6.09185287 89 3 C75.48351489 0.86965353 75.48351489 0.86965353 62.88037109 4.40917969 C59.39229127 8.07927223 57.11997902 12.40118582 54.97705078 16.95605469 C53.63127316 19.7713596 51.97912899 22.36528356 50.3125 25 C49.53593546 26.3300035 48.76237948 27.66181491 48 29 C41.38889482 26.10676792 38.54605838 19.29982271 35.26953125 13.21484375 C34.02778991 11.0484827 32.66934835 9.07030016 31.1875 7.0625 C29 4 29 4 29 2 C20.42 2.33 11.84 2.66 3 3 C4.546875 5.083125 6.09375 7.16625 7.6875 9.3125 C13.86386812 17.6870924 19.7343961 26.26521521 25.54199219 34.8984375 C26.50241133 36.28277909 27.49769491 37.64366421 28.52832031 38.9765625 C32.05112381 43.54091162 32.05112381 43.54091162 31.78100586 45.96655273 C30.93884922 48.15921376 29.92902605 49.81621507 28.55859375 51.72265625 C28.06101562 52.42108643 27.5634375 53.1195166 27.05078125 53.83911133 C26.51839844 54.57282959 25.98601562 55.30654785 25.4375 56.0625 C24.89609375 56.81748779 24.3546875 57.57247559 23.796875 58.3503418 C22.7082888 59.86637909 21.61701573 61.380491 20.52294922 62.89257812 C19.19535252 64.7296757 17.87807074 66.57339244 16.56640625 68.421875 C13.58442542 72.59326595 10.71117225 76.44345993 7 80 C8.56641751 75.69235185 10.68336156 71.93828536 13 68 C13.66 68 14.32 68 15 68 C15.20109375 67.33871094 15.4021875 66.67742187 15.609375 65.99609375 C17.89083979 61.08069068 21.53512941 57.103196 25.0078125 52.97070312 C28.27850554 49.0127251 28.27850554 49.0127251 28.7734375 44.11328125 C26.20785401 39.60938247 23.36006753 35.36022402 20.375 31.125 C19.76398438 30.24585938 19.15296875 29.36671875 18.5234375 28.4609375 C17.02204517 26.30268602 15.51413543 24.14932129 14 22 C13.34 22.33 12.68 22.66 12 23 C11.9175 22.278125 11.835 21.55625 11.75 20.8125 C10.83820572 17.39327146 9.23272782 15.73509158 7 13 C5.72244851 11.12262251 4.47202568 9.22648466 3.25 7.3125 C2.63640625 6.35988281 2.0228125 5.40726562 1.390625 4.42578125 C0 2 0 2 0 0 Z " fill="#1F5DB7" transform="translate(427,111)"/>
<path d="M0 0 C30.36 0 60.72 0 92 0 C92 0.66 92 1.32 92 2 C61.97 2 31.94 2 1 2 C1 8.93 1 15.86 1 23 C3.50335938 22.98839844 6.00671875 22.97679688 8.5859375 22.96484375 C11.00520704 22.95704941 13.4244752 22.95097479 15.84375 22.94506836 C17.52767562 22.94003347 19.21159686 22.93320519 20.89550781 22.92456055 C23.31316203 22.91245804 25.73075856 22.90676332 28.1484375 22.90234375 C28.9036972 22.89718246 29.65895691 22.89202118 30.43710327 22.88670349 C35.77225659 22.88612829 35.77225659 22.88612829 38 24 C38 39.51 38 55.02 38 71 C35.93962697 67.90944045 35.75200758 67.29073838 35.77294922 63.80395508 C35.77310028 62.96331009 35.77325134 62.1226651 35.77340698 61.25654602 C35.78372955 60.35333115 35.79405212 59.45011627 35.8046875 58.51953125 C35.8075174 57.59154221 35.81034729 56.66355316 35.81326294 55.70744324 C35.82446164 52.74233121 35.84956565 49.77752079 35.875 46.8125 C35.8850302 44.80273874 35.89415598 42.79297274 35.90234375 40.78320312 C35.92439996 35.85535247 35.95892771 30.92772738 36 26 C34.91992676 25.98018066 33.83985352 25.96036133 32.72705078 25.93994141 C28.72746087 25.86398377 24.72823948 25.77525184 20.72900391 25.68261719 C18.99665593 25.64428659 17.26422726 25.60944094 15.53173828 25.578125 C13.04430251 25.53256235 10.55742434 25.47455497 8.0703125 25.4140625 C7.29317902 25.40251129 6.51604553 25.39096008 5.71536255 25.37905884 C0.22774341 25.22774341 0.22774341 25.22774341 -2 23 C-1.69650417 21.65956008 -1.35412344 20.32796291 -1 19 C-0.95575914 16.50039148 -0.9606348 13.99969006 -1 11.5 C-1.06587814 7.31673782 -1.01841143 4.07364573 0 0 Z " fill="#2260BB" transform="translate(251,77)"/>
<path d="M0 0 C0 0.66 0 1.32 0 2 C-1.85043427 3.19820784 -3.75790262 4.30894982 -5.6875 5.375 C-9.77555018 7.64114747 -13.42188886 9.986155 -17 13 C-15.57300055 17.28099834 -12.43976 18.15157468 -8.625 20.0625 C-1.2061359 23.86257606 -1.2061359 23.86257606 2 26 C-1.28278407 34.87626568 -7.10404205 42.38354617 -13.07421875 49.62890625 C-15.43301645 52.53314601 -17.61300513 55.5479905 -19.7734375 58.6015625 C-20.17820312 59.06304687 -20.58296875 59.52453125 -21 60 C-21.66 60 -22.32 60 -23 60 C-23.37511719 60.85078125 -23.37511719 60.85078125 -23.7578125 61.71875 C-30.69034866 74.45020005 -45.70197379 86.23401371 -57 95 C-57.89847656 95.71542969 -58.79695313 96.43085938 -59.72265625 97.16796875 C-75.0901012 109.11103119 -94.70833067 122.87622793 -114 127 C-114 126.34 -114 125.68 -114 125 C-112.58074219 124.41605469 -112.58074219 124.41605469 -111.1328125 123.8203125 C-103.37491418 120.56370242 -95.86596049 117.00909763 -88.5 112.9375 C-87.77184082 112.53869629 -87.04368164 112.13989258 -86.29345703 111.72900391 C-81.85060199 109.23097643 -77.787884 106.45867525 -73.7746582 103.31591797 C-71.63665967 101.73058132 -69.33364231 100.53668545 -66.99609375 99.2734375 C-63.20757916 96.85649864 -59.86605447 93.83821128 -56.453125 90.92578125 C-54 89 -54 89 -51 88 C-51 87.34 -51 86.68 -51 86 C-49.29781633 84.50618709 -47.53677109 83.07902984 -45.75 81.6875 C-41.94031875 78.71937533 -38.92006753 75.84454306 -36 72 C-34.33333333 70.33333333 -32.66666667 68.66666667 -31 67 C-27.08155047 62.79504286 -27.08155047 62.79504286 -24 58 C-23.34 58 -22.68 58 -22 58 C-22 57.34 -22 56.68 -22 56 C-21.34 56 -20.68 56 -20 56 C-19.5359375 55.071875 -19.5359375 55.071875 -19.0625 54.125 C-18.375 52.75 -17.6875 51.375 -17 50 C-16.34 50 -15.68 50 -15 50 C-14.71125 49.4225 -14.4225 48.845 -14.125 48.25 C-13.08333333 46.16666667 -12.04166667 44.08333333 -11 42 C-10.34 42 -9.68 42 -9 42 C-8.67 40.68 -8.34 39.36 -8 38 C-7.34 38 -6.68 38 -6 38 C-5.71125 37.2575 -5.4225 36.515 -5.125 35.75 C-4.17697356 33.43260203 -3.15154089 31.22082885 -2 29 C-2.804375 28.21625 -3.60875 27.4325 -4.4375 26.625 C-7 24 -7 24 -8 22 C-9.99054876 21.30562253 -11.99255385 20.64389782 -14 20 C-17.3125 18.625 -17.3125 18.625 -20 17 C-20.66796875 14.8984375 -20.66796875 14.8984375 -21 13 C-19.12653773 11.58126158 -17.25129507 10.16498375 -15.375 8.75 C-14.33085937 7.96109375 -13.28671875 7.1721875 -12.2109375 6.359375 C-3.55629139 0 -3.55629139 0 0 0 Z " fill="#2163B9" transform="translate(156,49)"/>
<path d="M0 0 C0.33 0 0.66 0 1 0 C1 6.27 1 12.54 1 19 C1.66 19.33 2.32 19.66 3 20 C-2.60409729 21.24211258 -8.15532995 21.39098221 -13.875 21.625 C-15.47021484 21.70234375 -15.47021484 21.70234375 -17.09765625 21.78125 C-18.13535156 21.82507813 -19.17304688 21.86890625 -20.2421875 21.9140625 C-21.1791748 21.9548291 -22.11616211 21.9955957 -23.08154297 22.03759766 C-26 22 -26 22 -33 21 C-32.67 53.67 -32.34 86.34 -32 120 C-40.58 120 -49.16 120 -58 120 C-59.125 111 -59.125 111 -59.11352539 107.14453125 C-59.11344986 106.28424316 -59.11337433 105.42395508 -59.11329651 104.53759766 C-59.10813522 103.63831543 -59.10297394 102.7390332 -59.09765625 101.8125 C-59.0962413 100.86938965 -59.09482635 99.9262793 -59.09336853 98.95458984 C-59.0878124 95.96969303 -59.07526823 92.98487379 -59.0625 90 C-59.05747932 87.96484484 -59.05291741 85.92968849 -59.04882812 83.89453125 C-59.03785737 78.92965803 -59.02062339 73.96484213 -59 69 C-58.01 68.505 -58.01 68.505 -57 68 C-57 84.83 -57 101.66 -57 119 C-49.41 119 -41.82 119 -34 119 C-34 86 -34 53 -34 19 C-22.78 19 -11.56 19 0 19 C0 12.73 0 6.46 0 0 Z " fill="#1859A0" transform="translate(346,81)"/>
<path d="M0 0 C0.33 0 0.66 0 1 0 C1 9.57 1 19.14 1 29 C15.19 29 29.38 29 44 29 C44 36.59 44 44.18 44 52 C33.82687034 52.57719885 23.69026756 53.10105342 13.5 53.125 C12.7061792 53.12951172 11.9123584 53.13402344 11.09448242 53.13867188 C7.4916497 53.12929255 4.52032249 52.88008062 1 52 C1.33 67.51 1.66 83.02 2 99 C1.01 98.67 0.02 98.34 -1 98 C-1.02526945 91.3247966 -1.04283268 84.64960543 -1.05493164 77.97436523 C-1.05997325 75.70157409 -1.06680637 73.4287862 -1.07543945 71.15600586 C-1.08751261 67.89696449 -1.09322987 64.63796583 -1.09765625 61.37890625 C-1.10281754 60.35599991 -1.10797882 59.33309357 -1.11329651 58.27919006 C-1.11337204 57.33829025 -1.11344757 56.39739044 -1.11352539 55.42797852 C-1.115746 54.59524918 -1.11796661 53.76251984 -1.12025452 52.90455627 C-1 51 -1 51 0 50 C3.10251201 49.91125865 6.1826812 49.88481545 9.28515625 49.90234375 C10.21597519 49.9037587 11.14679413 49.90517365 12.1058197 49.90663147 C15.09141191 49.91224828 18.07693029 49.9248036 21.0625 49.9375 C23.08137913 49.94251284 25.10025943 49.94707612 27.11914062 49.95117188 C32.07947871 49.96137413 37.0396563 49.98094618 42 50 C42 43.4 42 36.8 42 30 C28.14 30 14.28 30 0 30 C0 20.1 0 10.2 0 0 Z " fill="#0F9047" transform="translate(559,102)"/>
<path d="M0 0 C1.98 0.495 1.98 0.495 4 1 C3.34 1 2.68 1 2 1 C2 41.26 2 81.52 2 123 C9.92 123 17.84 123 26 123 C25.67 123.66 25.34 124.32 25 125 C16.75 124.67 8.5 124.34 0 124 C-1.03364183 110.42511098 -1.14667914 96.93034965 -1.1328125 83.3203125 C-1.13348739 80.97142527 -1.13445896 78.62253811 -1.13571167 76.27365112 C-1.13717586 71.38734258 -1.1350728 66.50105247 -1.13037109 61.61474609 C-1.12463006 55.34225591 -1.12798826 49.0698081 -1.13394356 42.79731941 C-1.13754614 37.96421993 -1.13641275 33.13113063 -1.13381577 28.29803085 C-1.13314794 25.98308177 -1.13396989 23.66813176 -1.13629532 21.35318375 C-1.1388216 18.13663501 -1.1349836 14.92015674 -1.12939453 11.70361328 C-1.13141876 10.74476227 -1.13344299 9.78591125 -1.13552856 8.79800415 C-1.13270874 7.92647705 -1.12988892 7.05494995 -1.12698364 6.15701294 C-1.1264181 5.01842929 -1.1264181 5.01842929 -1.12584114 3.85684395 C-1 2 -1 2 0 0 Z " fill="#1B9751" transform="translate(619,77)"/>
<path d="M0 0 C0.99 0.495 0.99 0.495 2 1 C1.21625 1.61875 0.4325 2.2375 -0.375 2.875 C-2.96837647 4.89858661 -2.96837647 4.89858661 -5 7 C-6.97896906 8.24247773 -8.98232986 9.44640903 -11 10.625 C-12.0725 11.25664062 -13.145 11.88828125 -14.25 12.5390625 C-17 14 -17 14 -19 14 C-19.33 14.66 -19.66 15.32 -20 16 C-22.33333333 16.66666667 -24.66666667 17.33333333 -27 18 C-27.33 18.66 -27.66 19.32 -28 20 C-31.0318856 21.88186002 -32.24517355 22 -36 22 C-36.33 22.66 -36.66 23.32 -37 24 C-40.45043117 25.15014372 -43.35282355 26 -47 26 C-47 26.66 -47 27.32 -47 28 C-50.43515002 28.62457273 -53.49064814 29 -57 29 C-57 29.66 -57 30.32 -57 31 C-58.670625 31.2165625 -58.670625 31.2165625 -60.375 31.4375 C-63.82142047 31.78372035 -63.82142047 31.78372035 -66 33 C-66.7425 33.144375 -67.485 33.28875 -68.25 33.4375 C-71.09360418 33.94765506 -71.09360418 33.94765506 -74.0625 35.125 C-77.28266238 36.0841973 -77.89526309 35.77892693 -81 35 C-83.10368674 34.95506143 -85.20869155 34.96117539 -87.3125 35 C-89.87499438 35.00536648 -92.43750499 35.00505922 -95 35 C-95.67756348 35.0009668 -96.35512695 35.00193359 -97.05322266 35.00292969 C-99.07921866 34.99236512 -101.10005774 34.93892714 -103.125 34.875 C-104.34445313 34.85179687 -105.56390625 34.82859375 -106.8203125 34.8046875 C-110 34 -110 34 -112.4296875 30.9453125 C-112.94789062 29.97335938 -113.46609375 29.00140625 -114 28 C-112.96939294 25.11430024 -112.31211099 24.16051422 -109.5390625 22.734375 C-108.09660156 22.24710938 -108.09660156 22.24710938 -106.625 21.75 C-105.66851562 21.41484375 -104.71203125 21.0796875 -103.7265625 20.734375 C-101 20 -101 20 -97 20 C-97 20.66 -97 21.32 -97 22 C-103.435 23.98 -103.435 23.98 -110 26 C-109.67 27.32 -109.34 28.64 -109 30 C-103.06419934 31.70662768 -97.72819543 32.35425005 -91.5625 32.3125 C-90.25369873 32.30512817 -90.25369873 32.30512817 -88.91845703 32.29760742 C-57.79773781 31.74642302 -24.59061922 18.78136743 0 0 Z " fill="#2265B8" transform="translate(138,156)"/>
<path d="M0 0 C0.66 0 1.32 0 2 0 C2.15373756 11.03073522 2.30191918 22.06152963 2.4429636 33.09243488 C2.50862824 38.21425278 2.57622282 43.33603019 2.64819336 48.45776367 C2.71754902 53.3984236 2.78188041 58.33912551 2.84269524 63.27989769 C2.86681276 65.16700818 2.89275557 67.05409624 2.92053413 68.94115639 C2.95906535 71.57963172 2.99116732 74.21811148 3.02172852 76.85668945 C3.03467453 77.6407164 3.04762054 78.42474335 3.06095886 79.23252869 C3.13437705 86.73473329 3.13437705 86.73473329 0.375 89.8125 C-2 91 -2 91 -5.75 90.1875 C-6.8225 89.795625 -7.895 89.40375 -9 89 C-9 88.34 -9 87.68 -9 87 C-10.98 86.34 -12.96 85.68 -15 85 C-15 84.34 -15 83.68 -15 83 C-16.98 82.34 -18.96 81.68 -21 81 C-21.59167969 81.79664062 -22.18335938 82.59328125 -22.79296875 83.4140625 C-26.74135003 88.71419453 -30.68508859 93.98913514 -35 99 C-35 94.82135328 -32.70426126 92.73332267 -30.1875 89.625 C-27.18191052 85.86908505 -24.37085411 82.20609999 -22 78 C-16.61584205 79.24249799 -13.37924656 81.95682823 -9.34375 85.5390625 C-6.61166552 87.52898147 -6.61166552 87.52898147 -1 87 C-0.67 58.29 -0.34 29.58 0 0 Z " fill="#2360BD" transform="translate(214,21)"/>
<path d="M0 0 C4.75 1.875 4.75 1.875 7 3 C7.45601432 35.1911033 7.45601432 35.1911033 5 45 C4.34 45.66 3.68 46.32 3 47 C3.0721875 46.24203125 3.144375 45.4840625 3.21875 44.703125 C4.32237037 31.15311937 4.09243553 17.58517907 4 4 C-0.18207778 4.50428944 -2.0173924 5.55199223 -4.84765625 8.640625 C-5.87922852 9.75244141 -5.87922852 9.75244141 -6.93164062 10.88671875 C-7.63482422 11.66660156 -8.33800781 12.44648438 -9.0625 13.25 C-9.76955078 14.01441406 -10.47660156 14.77882812 -11.20507812 15.56640625 C-13.96755073 18.57010885 -16.66056223 21.56610469 -19.17578125 24.78125 C-21.26847011 27.32653324 -23.53724851 29.21299445 -26.125 31.25 C-29.78573257 34.17279834 -33.28214314 37.15978997 -36.6875 40.375 C-43.21842533 46.35550699 -50.63961095 51.11438196 -58 56 C-58.66 55.67 -59.32 55.34 -60 55 C-55.93007023 51.82398245 -51.85810358 48.65120437 -47.75390625 45.51953125 C-37.86285586 38.0238568 -37.86285586 38.0238568 -28.6875 29.6875 C-26.22771926 27.22771926 -23.6835172 24.97208813 -21.0625 22.6875 C-17.27892455 19.31371833 -14.21490517 15.92029604 -11.3046875 11.78515625 C-9.45514469 9.25449438 -7.27231351 7.14948575 -5 5 C-4.443125 4.401875 -3.88625 3.80375 -3.3125 3.1875 C-2 2 -2 2 0 2 C0 1.34 0 0.68 0 0 Z " fill="#179C54" transform="translate(201,129)"/>
<path d="M0 0 C4.76369898 4.18187315 8.08985613 9.00679849 8.921875 15.359375 C8.963125 16.49375 9.004375 17.628125 9.046875 18.796875 C7.31022638 16.19190208 6.05184541 13.74563894 4.734375 10.921875 C0.84854675 3.17274505 -3.84489637 -0.46249321 -11.953125 -3.203125 C-24.83863304 -6.6692875 -37.52153971 -6.13315393 -49.953125 -1.203125 C-51.96701417 0.10913572 -53.96996336 1.43862329 -55.953125 2.796875 C-56.613125 2.796875 -57.273125 2.796875 -57.953125 2.796875 C-58.283125 3.786875 -58.613125 4.776875 -58.953125 5.796875 C-59.613125 5.796875 -60.273125 5.796875 -60.953125 5.796875 C-62.61801682 9.72126286 -63.82516537 13.68787919 -64.953125 17.796875 C-63.74076172 18.08691406 -63.74076172 18.08691406 -62.50390625 18.3828125 C-61.43527344 18.64320313 -60.36664063 18.90359375 -59.265625 19.171875 C-57.68201172 19.55472656 -57.68201172 19.55472656 -56.06640625 19.9453125 C-53.24905734 20.71592989 -50.63644175 21.65186043 -47.953125 22.796875 C-47.293125 21.146875 -46.633125 19.496875 -45.953125 17.796875 C-44.90862589 20.93037232 -45.01888855 21.78655756 -45.953125 24.796875 C-47.37625 24.7659375 -47.37625 24.7659375 -48.828125 24.734375 C-51.85978783 24.57135674 -51.85978783 24.57135674 -53.953125 25.796875 C-54.448125 24.311875 -54.448125 24.311875 -54.953125 22.796875 C-56.933125 22.466875 -58.913125 22.136875 -60.953125 21.796875 C-60.953125 21.136875 -60.953125 20.476875 -60.953125 19.796875 C-61.9225 19.673125 -62.891875 19.549375 -63.890625 19.421875 C-65.4065625 19.1125 -65.4065625 19.1125 -66.953125 18.796875 C-68.55343844 15.59624813 -66.98486191 13.07415694 -65.953125 9.796875 C-65.293125 9.796875 -64.633125 9.796875 -63.953125 9.796875 C-63.72625 9.075 -63.499375 8.353125 -63.265625 7.609375 C-61.68977372 4.23255083 -59.74435884 2.23920461 -56.953125 -0.203125 C-56.293125 -0.203125 -55.633125 -0.203125 -54.953125 -0.203125 C-54.623125 -1.193125 -54.293125 -2.183125 -53.953125 -3.203125 C-38.38190852 -11.52503404 -14.2570457 -10.21249373 0 0 Z " fill="#1F5EB7" transform="translate(404.953125,117.203125)"/>
<path d="M0 0 C0.33 0 0.66 0 1 0 C1.90413673 3.83724172 2.10576898 7.37502274 2.0625 11.3125 C2.05347656 12.38113281 2.04445312 13.44976562 2.03515625 14.55078125 C2.02355469 15.35902344 2.01195312 16.16726562 2 17 C3.04978027 16.99476318 4.09956055 16.98952637 5.18115234 16.98413086 C9.06867625 16.96605761 12.95619644 16.95455946 16.84375 16.94506836 C18.52767562 16.94003347 20.21159686 16.93320519 21.89550781 16.92456055 C24.31316203 16.91245804 26.73075856 16.90676332 29.1484375 16.90234375 C29.9036972 16.89718246 30.65895691 16.89202118 31.43710327 16.88670349 C36.77225659 16.88612829 36.77225659 16.88612829 39 18 C39 33.51 39 49.02 39 65 C36.93962697 61.90944045 36.75200758 61.29073838 36.77294922 57.80395508 C36.77310028 56.96331009 36.77325134 56.1226651 36.77340698 55.25654602 C36.78372955 54.35333115 36.79405212 53.45011627 36.8046875 52.51953125 C36.8075174 51.59154221 36.81034729 50.66355316 36.81326294 49.70744324 C36.82446164 46.74233121 36.84956565 43.77752079 36.875 40.8125 C36.8850302 38.80273874 36.89415598 36.79297274 36.90234375 34.78320312 C36.92439996 29.85535247 36.95892771 24.92772738 37 20 C35.91992676 19.98018066 34.83985352 19.96036133 33.72705078 19.93994141 C29.72746087 19.86398377 25.72823948 19.77525184 21.72900391 19.68261719 C19.99665593 19.64428659 18.26422726 19.60944094 16.53173828 19.578125 C14.04430251 19.53256235 11.55742434 19.47455497 9.0703125 19.4140625 C8.29317902 19.40251129 7.51604553 19.39096008 6.71536255 19.37905884 C1.22774341 19.22774341 1.22774341 19.22774341 -1 17 C-0.70740407 15.65713868 -0.36295539 14.3255762 0 13 C0.06790675 10.75092848 0.08499984 8.49998395 0.0625 6.25 C0.05347656 5.07953125 0.04445312 3.9090625 0.03515625 2.703125 C0.02355469 1.81109375 0.01195312 0.9190625 0 0 Z " fill="#256EAD" transform="translate(250,83)"/>
<path d="M0 0 C0.66 0 1.32 0 2 0 C3.63126629 2.1531465 5.13636488 4.31244432 6.625 6.5625 C7.60458279 8.01492084 8.58511204 9.46670364 9.56640625 10.91796875 C10.10668457 11.72024902 10.64696289 12.5225293 11.20361328 13.34912109 C14.6164983 18.38542246 18.09146104 23.37868913 21.5625 28.375 C22.2652002 29.39150635 22.96790039 30.4080127 23.69189453 31.45532227 C24.3517334 32.40592529 25.01157227 33.35652832 25.69140625 34.3359375 C26.57614624 35.61283447 26.57614624 35.61283447 27.47875977 36.91552734 C28.97377509 39.07666444 28.97377509 39.07666444 31 41 C30.625 43.125 30.625 43.125 30 45 C25.81303365 45.17518688 21.62701665 45.28115483 17.4375 45.375 C16.25607422 45.42527344 15.07464844 45.47554687 13.85742188 45.52734375 C3.99274393 45.69313666 3.99274393 45.69313666 -0.22265625 42.20703125 C-4.00515643 38.39445872 -5.32571286 34.02286143 -7 29 C-7.66 29 -8.32 29 -9 29 C-9.79275148 27.5839401 -10.58415312 26.16712447 -11.375 24.75 C-12.03628906 23.56664062 -12.03628906 23.56664062 -12.7109375 22.359375 C-13.85747823 20.26085803 -14.94649552 18.1463923 -16 16 C-15.34 16 -14.68 16 -14 16 C-12.34703046 18.23921468 -10.8214137 20.47901576 -9.3125 22.8125 C-8.62136108 23.82679077 -8.62136108 23.82679077 -7.91625977 24.86157227 C-5.78317775 28.02885321 -4.05182983 30.8663336 -2.6640625 34.4453125 C-1.24407962 37.90934716 0.15068268 39.58134201 3 42 C5.8684803 42.72430222 5.8684803 42.72430222 8.9921875 42.671875 C10.12068115 42.69451416 11.2491748 42.71715332 12.41186523 42.74047852 C17.62246442 42.66218061 22.80563166 42.41520105 28 42 C23.80353258 35.59980108 19.52821605 29.27691842 15.0625 23.0625 C11.66395524 18.32878912 8.27627339 13.58864134 4.9375 8.8125 C4.20402344 7.76707031 3.47054688 6.72164062 2.71484375 5.64453125 C1 3 1 3 0 0 Z " fill="#2060B6" transform="translate(488,157)"/>
<path d="M0 0 C1.39852912 4.19558737 -0.22736864 6.04566851 -2 10 C-5.72444327 23.765341 -3.58891878 39.13055094 3.3515625 51.38671875 C8.70081417 59.23129173 16.54909982 64.06596026 25 68 C25.99 68.66 26.98 69.32 28 70 C18.7776 69.648 18.7776 69.648 15.75 67.125 C15.1725 66.42375 14.595 65.7225 14 65 C12.03120677 63.93988057 10.03564133 62.92529151 8 62 C8 61.34 8 60.68 8 60 C7.34 59.67 6.68 59.34 6 59 C-3.64958641 46.83189983 -8.32030086 32.1178279 -6.7578125 16.59375 C-5.62918551 11.76243447 -3.60604051 3.60604051 0 0 Z " fill="#189854" transform="translate(662,132)"/>
<path d="M0 0 C-1.66254309 5.53890153 -3.33508216 11.07464418 -5.01708984 16.60766602 C-5.58823208 18.49159021 -6.15660048 20.37635762 -6.72216797 22.26196289 C-7.53411162 24.96725676 -8.35588041 27.66939247 -9.1796875 30.37109375 C-9.43185028 31.21900986 -9.68401306 32.06692596 -9.94381714 32.9405365 C-10.57078037 34.97925178 -11.27805238 36.99295378 -12 39 C-12.99 39.495 -12.99 39.495 -14 40 C-12.60737678 31.52305544 -10.05942254 23.52054464 -7.375 15.375 C-6.9500028 14.07178341 -6.52552006 12.76839893 -6.1015625 11.46484375 C-5.07274653 8.3082493 -4.03707134 5.15389185 -3 2 C-10.59 2 -18.18 2 -26 2 C-26.45375 3.85625 -26.9075 5.7125 -27.375 7.625 C-28.42097228 11.81880355 -29.53048615 15.93057703 -31 20 C-31.33 20 -31.66 20 -32 20 C-32.73226358 12.38445882 -30.19164467 6.83923859 -27 0 C-23.81310715 -0.19892707 -20.62548809 -0.38204784 -17.4375 -0.5625 C-16.54224609 -0.61857422 -15.64699219 -0.67464844 -14.72460938 -0.73242188 C-13.84482422 -0.78076172 -12.96503906 -0.82910156 -12.05859375 -0.87890625 C-11.25736084 -0.9260376 -10.45612793 -0.97316895 -9.63061523 -1.02172852 C-6.35885335 -0.99470422 -3.22735863 -0.51450645 0 0 Z " fill="#159750" transform="translate(895,111)"/>
<path d="M0 0 C-3 2 -3 2 -5.3046875 2.97265625 C-11.28266242 5.5073903 -14.39602296 7.88156659 -17.171875 13.8046875 C-20.2357274 21.92678678 -19.57370103 30.82654945 -17 39 C-15.48537267 41.8334743 -15.48537267 41.8334743 -14 44 C-14 44.66 -14 45.32 -14 46 C-13.13375 46.433125 -13.13375 46.433125 -12.25 46.875 C-10 48 -10 48 -8.34375 49 C-5.07683664 50.39388304 -1.74697455 50.72175719 1.75 51.125 C2.44738281 51.21136719 3.14476562 51.29773438 3.86328125 51.38671875 C5.57472332 51.59771846 7.28726629 51.79975501 9 52 C9 52.33 9 52.66 9 53 C-7.72611377 53.68842237 -7.72611377 53.68842237 -13.7109375 48.5234375 C-19.73890587 42.083803 -21.57422541 34.78339382 -21.5 26.125 C-21.49355469 25.33706055 -21.48710938 24.54912109 -21.48046875 23.73730469 C-21.24423677 16.19342291 -19.61311587 10.40926303 -13.9921875 5.10546875 C-9.39843044 1.48640184 -5.93775786 -0.16047994 0 0 Z " fill="#179553" transform="translate(702,130)"/>
<path d="M0 0 C1.94388475 3.88776951 2.23632315 5.1261568 2.16015625 9.24609375 C2.14919922 10.24833984 2.13824219 11.25058594 2.12695312 12.28320312 C2.09504883 13.84458008 2.09504883 13.84458008 2.0625 15.4375 C2.02791306 17.49862529 1.99780974 19.55983175 1.97265625 21.62109375 C1.95468994 22.5330249 1.93672363 23.44495605 1.91821289 24.38452148 C2.00093329 27.02984579 2.4070238 29.4250132 3 32 C2.34 32 1.68 32 1 32 C1.14433868 33.35432679 1.29056661 34.70845225 1.4375 36.0625 C1.52644531 36.88234375 1.61539063 37.7021875 1.70703125 38.546875 C1.957343 40.64281869 2.28351917 42.72946693 2.625 44.8125 C3 48 3 48 2.51586914 49.90136719 C1.92395977 52.30934303 1.97842764 54.29274571 2.12109375 56.765625 C2.16943359 57.65507812 2.21777344 58.54453125 2.26757812 59.4609375 C2.32365234 60.38132813 2.37972656 61.30171875 2.4375 62.25 C2.48970703 63.18585938 2.54191406 64.12171875 2.59570312 65.0859375 C2.72506825 67.39098887 2.86002034 69.69557289 3 72 C2.34 72 1.68 72 1 72 C1.66 74.64 2.32 77.28 3 80 C2.34 80 1.68 80 1 80 C0.67 80.99 0.34 81.98 0 83 C0 55.61 0 28.22 0 0 Z " fill="#168957" transform="translate(644,78)"/>
<path d="M0 0 C3.28316015 2.59196854 4.89973685 4.96570179 6 9 C6.15038128 11.69182496 6.09154169 14.29952004 6 17 C-2.68873018 17.89115181 -11.26860536 18.11624638 -20 18 C-17.47871644 15.47871644 -16.48760987 15.70646931 -12.9921875 15.5859375 C-12.00605469 15.54726562 -11.01992188 15.50859375 -10.00390625 15.46875 C-8.45509766 15.42234375 -8.45509766 15.42234375 -6.875 15.375 C-5.83472656 15.33632812 -4.79445313 15.29765625 -3.72265625 15.2578125 C-1.14873598 15.16335671 1.42560805 15.08058229 4 15 C3.505 10.05 3.505 10.05 3 5 C2.01 4.67 1.02 4.34 0 4 C-0.474375 3.505 -0.94875 3.01 -1.4375 2.5 C-4.93447674 -0.85709767 -9.96382897 -0.14196306 -14.515625 -0.1015625 C-17.40467442 0.01654329 -20.17144446 0.40451462 -23 1 C-17.1737559 -5.70018071 -7.11580812 -3.70022022 0 0 Z " fill="#2363BE" transform="translate(386,131)"/>
<path d="M0 0 C-0.33 0.99 -0.66 1.98 -1 3 C-1.72550049 2.9477124 -2.45100098 2.8954248 -3.19848633 2.84155273 C-6.46289883 3.02618051 -8.03875025 3.85438895 -10.82421875 5.53515625 C-12.22583252 6.36841431 -12.22583252 6.36841431 -13.65576172 7.21850586 C-14.65623535 7.82702393 -15.65670898 8.43554199 -16.6875 9.0625 C-18.82907935 10.3365222 -20.97102006 11.60993714 -23.11328125 12.8828125 C-24.2317041 13.5521582 -25.35012695 14.22150391 -26.50244141 14.91113281 C-31.86055153 18.11569809 -37.24139126 21.28089665 -42.63687134 24.42208862 C-44.36044182 25.42899514 -46.0780835 26.44602786 -47.7956543 27.46313477 C-48.84019775 28.07213623 -49.88474121 28.6811377 -50.9609375 29.30859375 C-51.88696777 29.85314209 -52.81299805 30.39769043 -53.76708984 30.95874023 C-54.87238037 31.47416382 -54.87238037 31.47416382 -56 32 C-56.66 31.67 -57.32 31.34 -58 31 C-51.0479556 26.19216853 -43.84106371 21.93311273 -36.5 17.75 C-27.06021113 12.37226003 -27.06021113 12.37226003 -17.734375 6.80078125 C-16.96544922 6.3325293 -16.19652344 5.86427734 -15.40429688 5.38183594 C-14.01347246 4.53006631 -12.62881223 3.66810952 -11.25195312 2.79394531 C-7.33284869 0.40670489 -4.58687441 -0.45728042 0 0 Z " fill="#1F5DB8" transform="translate(215,17)"/>
<path d="M0 0 C1.2963254 3.88897621 0.18528947 6.33352569 -1.0625 10.0625 C-1.28856934 10.76133301 -1.51463867 11.46016602 -1.74755859 12.18017578 C-2.48772471 14.45710614 -3.24202794 16.72893871 -4 19 C-4.25797363 19.77553223 -4.51594727 20.55106445 -4.78173828 21.35009766 C-5.81613056 24.45713657 -6.85237706 27.56352552 -7.89526367 30.66772461 C-9.7099057 36.07955416 -11.42807394 41.51204763 -13 47 C-13.66 47 -14.32 47 -15 47 C-15.67220351 45.06441401 -16.33758077 43.12645628 -17 41.1875 C-17.37125 40.10855469 -17.7425 39.02960938 -18.125 37.91796875 C-19 35 -19 35 -19 32 C-18.34 32 -17.68 32 -17 32 C-16.01 34.64 -15.02 37.28 -14 40 C-6.69786334 22.31861764 -6.69786334 22.31861764 -3 4 C-2.34 4 -1.68 4 -1 4 C-0.67 2.68 -0.34 1.36 0 0 Z M-15 41 C-14 44 -14 44 -14 44 Z " fill="#13944B" transform="translate(809,121)"/>
<path d="M0 0 C-4.95 2.97 -4.95 2.97 -10 6 C-6.09145417 8.60569722 -2.72753279 8.38341485 1.8125 8.375 C3.08323364 8.37367065 3.08323364 8.37367065 4.37963867 8.37231445 C13.26740993 8.20721394 21.26323046 6.37689394 29.26171875 2.36328125 C32 1 32 1 34 1 C34 1.66 34 2.32 34 3 C31.77542155 4.01144568 29.54625709 5.00920265 27.3125 6 C26.37374023 6.42925781 26.37374023 6.42925781 25.41601562 6.8671875 C21.80007233 8.45744528 18.95809151 9.36326652 15 9 C15 9.66 15 10.32 15 11 C11.06251542 11.02898816 7.12505821 11.04679464 3.1875 11.0625 C2.06794922 11.07087891 0.94839844 11.07925781 -0.20507812 11.08789062 C-1.81479492 11.09272461 -1.81479492 11.09272461 -3.45703125 11.09765625 C-4.44678955 11.10289307 -5.43654785 11.10812988 -6.45629883 11.11352539 C-9 11 -9 11 -12 10 C-12.8125 8.125 -12.8125 8.125 -13 6 C-10.99322227 2.9898334 -10.15893736 2.29533559 -7.0625 0.75 C-6.37285156 0.39421875 -5.68320313 0.0384375 -4.97265625 -0.328125 C-3 -1 -3 -1 0 0 Z " fill="#1E9F61" transform="translate(123,248)"/>
<path d="M0 0 C1.4540625 0.0309375 1.4540625 0.0309375 2.9375 0.0625 C2.6075 1.0525 2.2775 2.0425 1.9375 3.0625 C0.6175 2.7325 -0.7025 2.4025 -2.0625 2.0625 C-1.7325 17.5725 -1.4025 33.0825 -1.0625 49.0625 C-2.0525 48.7325 -3.0425 48.4025 -4.0625 48.0625 C-4.08776945 41.3872966 -4.10533268 34.71210543 -4.11743164 28.03686523 C-4.12247325 25.76407409 -4.12930637 23.4912862 -4.13793945 21.21850586 C-4.15001261 17.95946449 -4.15572987 14.70046583 -4.16015625 11.44140625 C-4.16531754 10.41849991 -4.17047882 9.39559357 -4.17579651 8.34169006 C-4.17587204 7.40079025 -4.17594757 6.45989044 -4.17602539 5.49047852 C-4.178246 4.65774918 -4.18046661 3.82501984 -4.18275452 2.96705627 C-3.97813412 -0.27366238 -3.30657169 0.06748105 0 0 Z " fill="#139C52" transform="translate(562.0625,151.9375)"/>
<path d="M0 0 C0 0.33 0 0.66 0 1 C-1.25103516 1.32871094 -1.25103516 1.32871094 -2.52734375 1.6640625 C-13.21362305 4.67531646 -21.2140155 8.23615116 -27 18 C-29.85089888 26.53442164 -28.29696664 35.89495702 -25 44 C-27 42.1875 -27 42.1875 -29 40 C-29 39.01 -29 38.02 -29 37 C-29.66 36.67 -30.32 36.34 -31 36 C-32.70998159 28.8000775 -32.00281644 22.68027445 -29 16 C-28.72800781 15.33871094 -28.45601563 14.67742187 -28.17578125 13.99609375 C-22.76981634 4.81852542 -10.39011689 -0.90348843 0 0 Z " fill="#1D5AB6" transform="translate(364,149)"/>
<path d="M0 0 C0.66 0 1.32 0 2 0 C5.66666667 11 9.33333333 22 13 33 C13.3913916 34.1019873 13.7827832 35.20397461 14.18603516 36.33935547 C15.03308502 39.10814653 15.02412263 40.33728116 14 43 C11 36.5 11 36.5 11 32 C10.34 31.67 9.68 31.34 9 31 C8.2890625 28.8828125 8.2890625 28.8828125 7.625 26.125 C6.3459803 21.0876301 4.69240158 16.33299273 2.76953125 11.5078125 C1.96025641 8.87048028 1.85751075 6.74168976 2 4 C1.34 4 0.68 4 0 4 C-0.12117187 4.60328125 -0.24234375 5.2065625 -0.3671875 5.828125 C-0.61855469 7.02695313 -0.61855469 7.02695313 -0.875 8.25 C-1.11863281 9.43335938 -1.11863281 9.43335938 -1.3671875 10.640625 C-1.99150075 12.96831144 -2.84838542 14.89031952 -4 17 C-5.30457818 13.08626547 -4.37656943 11.2678125 -3.125 7.375 C-2.75632812 6.20710937 -2.38765625 5.03921875 -2.0078125 3.8359375 C-1 1 -1 1 0 0 Z " fill="#179654" transform="translate(822,146)"/>
<path d="M0 0 C0.33 0 0.66 0 1 0 C1 6.27 1 12.54 1 19 C1.66 19.33 2.32 19.66 3 20 C-2.60409729 21.24211258 -8.15532995 21.39098221 -13.875 21.625 C-15.47021484 21.70234375 -15.47021484 21.70234375 -17.09765625 21.78125 C-18.13535156 21.82507813 -19.17304688 21.86890625 -20.2421875 21.9140625 C-21.1791748 21.9548291 -22.11616211 21.9955957 -23.08154297 22.03759766 C-26 22 -26 22 -33 21 C-33 26.61 -33 32.22 -33 38 C-33.33 38 -33.66 38 -34 38 C-34 31.73 -34 25.46 -34 19 C-22.78 19 -11.56 19 0 19 C0 12.73 0 6.46 0 0 Z " fill="#1E60AB" transform="translate(346,81)"/>
<path d="M0 0 C2.29216547 2.80815654 3.62540484 5.2766699 4.73339844 8.72094727 C5.03671082 9.65193741 5.34002319 10.58292755 5.65252686 11.54212952 C5.96828674 12.54014084 6.28404663 13.53815216 6.609375 14.56640625 C6.9404425 15.59684555 7.27151001 16.62728485 7.61260986 17.68894958 C8.30893917 19.86390268 9.00129271 22.04013212 9.68994141 24.2175293 C10.74835924 27.55732266 11.82449484 30.89104338 12.90234375 34.22460938 C13.57659611 36.33819895 14.24980907 38.45212043 14.921875 40.56640625 C15.24573181 41.5664418 15.56958862 42.56647736 15.90325928 43.59681702 C16.19396301 44.524655 16.48466675 45.45249298 16.78417969 46.40844727 C17.04382507 47.22467056 17.30347046 48.04089386 17.57098389 48.8818512 C18 51 18 51 17 54 C14.68796073 51.68796073 14.72724909 51.06785625 14.5 47.9375 C14.2525 45.9884375 14.2525 45.9884375 14 44 C13.34 43.67 12.68 43.34 12 43 C10.73238238 38.70418473 10 35.49055702 10 31 C9.34 30.67 8.68 30.34 8 30 C7.4375 27.75 7.4375 27.75 7 25 C6.7215625 23.6078125 6.7215625 23.6078125 6.4375 22.1875 C6.293125 21.465625 6.14875 20.74375 6 20 C5.01 19.67 4.02 19.34 3 19 C2.87625 17.824375 2.7525 16.64875 2.625 15.4375 C2.14219837 11.48412433 1.10389833 7.82684755 0 4 C0 2.68 0 1.36 0 0 Z M4 17 C5 19 5 19 5 19 Z " fill="#179552" transform="translate(759,133)"/>
<path d="M0 0 C8.25 0 16.5 0 25 0 C25.825 2.536875 26.65 5.07375 27.5 7.6875 C27.89155273 8.87218872 27.89155273 8.87218872 28.29101562 10.08081055 C29.48486334 13.82769213 30.31440397 17.01492971 30 21 C27.73334543 17.60001815 26.6113026 14.16046109 25.375 10.3125 C24.59125 7.899375 23.8075 5.48625 23 3 C16.07 2.67 9.14 2.34 2 2 C1.34 4.31 0.68 6.62 0 9 C-1.22596039 5.32211882 -0.84310077 4.21550387 0 0 Z " fill="#13944D" transform="translate(811,111)"/>
<path d="M0 0 C0.66 0 1.32 0 2 0 C2 0.66 2 1.32 2 2 C-2.57776674 5.73695244 -6.25656667 7.71065782 -12 9 C-12 9.66 -12 10.32 -12 11 C-13.98567708 11.22786458 -15.97135417 11.45572917 -17.95703125 11.68359375 C-20.19396393 11.97170735 -20.19396393 11.97170735 -23 13 C-25.84668212 13.14802747 -28.65280957 13.23098704 -31.5 13.25 C-32.27214844 13.270625 -33.04429687 13.29125 -33.83984375 13.3125 C-39.59576704 13.35240241 -39.59576704 13.35240241 -41.74414062 11.47949219 C-42.15857422 10.99125977 -42.57300781 10.50302734 -43 10 C-41.99582031 10.02320313 -40.99164062 10.04640625 -39.95703125 10.0703125 C-26.05719487 10.29935555 -14.19967311 9.42062761 -2 2 C-1.34 1.34 -0.68 0.68 0 0 Z " fill="#199958" transform="translate(734,192)"/>
<path d="M0 0 C4.25494261 0.78879507 8.28245457 1.97542142 12.40234375 3.28125 C17.29830653 4.63592241 21.98395503 5.12379405 27.0546875 5.09765625 C28.16328125 5.09443359 29.271875 5.09121094 30.4140625 5.08789062 C32.12722656 5.07532227 32.12722656 5.07532227 33.875 5.0625 C35.0403125 5.05798828 36.205625 5.05347656 37.40625 5.04882812 C40.27088645 5.03708781 43.13541633 5.0206657 46 5 C39.9325936 9.0449376 29.55412953 8.91082591 22.5 7.5 C22.005 7.335 21.51 7.17 21 7 C21 7.66 21 8.32 21 9 C20.34 9 19.68 9 19 9 C19 8.34 19 7.68 19 7 C17.9275 7.020625 16.855 7.04125 15.75 7.0625 C12.85209576 7.0142016 10.71387859 6.86844115 8 6 C8 5.34 8 4.68 8 4 C7.05125 3.896875 6.1025 3.79375 5.125 3.6875 C2 3 2 3 0 0 Z " fill="#1C985F" transform="translate(53,230)"/>
<path d="M0 0 C0.66 0.33 1.32 0.66 2 1 C2.57083403 13.07208257 2.57083403 13.07208257 -1 17 C-6.34797113 21.06910847 -10.936614 23.28683976 -17.6875 23.25 C-19.11642578 23.25773437 -19.11642578 23.25773437 -20.57421875 23.265625 C-23 23 -23 23 -25 21 C-24.14277344 20.95101562 -23.28554688 20.90203125 -22.40234375 20.8515625 C-16.33243544 20.45465756 -10.75602589 20.00791601 -5 18 C-5 17.34 -5 16.68 -5 16 C-4.34 16 -3.68 16 -3 16 C-1.56663769 10.64878069 -0.59015185 5.50808397 0 0 Z " fill="#2367B7" transform="translate(390,163)"/>
<path d="M0 0 C9.24 0 18.48 0 28 0 C31.375 10.125 31.375 10.125 31 14 C29 12 29 12 27 2 C19.08 2 11.16 2 3 2 C2.67 2.99 2.34 3.98 2 5 C1.34 3.35 0.68 1.7 0 0 Z " fill="#13954D" transform="translate(751,111)"/>
<path d="M0 0 C0.66 0 1.32 0 2 0 C3.6079697 12.05977273 2.91396626 24.09809778 -3 35 C-4.62890625 36.7734375 -4.62890625 36.7734375 -6 38 C-4 32 -4 32 -3.25195312 30.10742188 C-0.84333092 23.72247075 -0.4622077 17.71711998 -0.3125 10.9375 C-0.27833984 9.88111328 -0.24417969 8.82472656 -0.20898438 7.73632812 C-0.12730705 5.15765843 -0.05790057 2.57929438 0 0 Z " fill="#169853" transform="translate(750,145)"/>
<path d="M0 0 C0.33 0.66 0.66 1.32 1 2 C-4.25345673 12.93816737 -13.26799855 23.38163786 -24 29 C-23.34 27.68 -22.68 26.36 -22 25 C-21.34 25 -20.68 25 -20 25 C-20 24.34 -20 23.68 -20 23 C-18.91573065 22.01567727 -17.77934586 21.08861979 -16.625 20.1875 C-12.70988081 16.87578628 -9.60791691 13.23604407 -6.5 9.1875 C-6.05479004 8.61217529 -5.60958008 8.03685059 -5.15087891 7.4440918 C-2.75308302 4.54222324 -2.75308302 4.54222324 -2 1 C-1.34 0.67 -0.68 0.34 0 0 Z " fill="#189B55" transform="translate(156,212)"/>
<path d="M0 0 C7.02438421 0.89077336 13.26644719 5.74895947 17.75390625 11.0859375 C18.86186481 12.7065336 19.93494867 14.35088826 21 16 C21.66 16 22.32 16 23 16 C23.12375 16.721875 23.2475 17.44375 23.375 18.1875 C23.90815331 21.01564422 23.90815331 21.01564422 25.125 23.5625 C26.11193893 26.31182989 25.81515684 27.28472404 25 30 C24.78085937 29.45472656 24.56171875 28.90945312 24.3359375 28.34765625 C19.12075384 15.94569511 12.00716721 7.25373292 0 1 C0 0.67 0 0.34 0 0 Z " fill="#179554" transform="translate(724,113)"/>
<path d="M0 0 C7.59 0 15.18 0 23 0 C22.67 0.99 22.34 1.98 22 3 C14.41 3 6.82 3 -1 3 C-0.67 2.01 -0.34 1.02 0 0 Z " fill="#21A965" transform="translate(622,76)"/>
<path d="M0 0 C3.49419012 1.16473004 3.8356691 2.28457175 5.72265625 5.25390625 C10.12322014 11.26935597 16.13722169 14.89200307 22.80078125 17.95703125 C25 19 25 19 28 21 C18.7776 20.648 18.7776 20.648 15.75 18.125 C15.1725 17.42375 14.595 16.7225 14 16 C12.03120677 14.93988057 10.03564133 13.92529151 8 13 C8 12.34 8 11.68 8 11 C7.34 10.67 6.68 10.34 6 10 C4.91150208 8.53362975 3.87569837 7.02763615 2.875 5.5 C2.33617187 4.6853125 1.79734375 3.870625 1.2421875 3.03125 C0 1 0 1 0 0 Z " fill="#1B9959" transform="translate(662,181)"/>
<path d="M0 0 C0.66 0.33 1.32 0.66 2 1 C-2.99173224 4.67811849 -8.20319036 6.84624464 -14 9 C-14.33 8.67 -14.66 8.34 -15 8 C-16.47648876 7.90176004 -17.95775417 7.87026481 -19.4375 7.875 C-20.24058594 7.87242187 -21.04367187 7.86984375 -21.87109375 7.8671875 C-24.05397931 7.86421674 -24.05397931 7.86421674 -26 9 C-26 8.34 -26 7.68 -26 7 C-28.31 7 -30.62 7 -33 7 C-33 6.67 -33 6.34 -33 6 C-28.50000799 5.32075592 -24.36071362 4.99410089 -19.8125 5.1875 C-13.15381488 5.28088969 -7.18056568 3.35315115 -1 1 C-0.67 0.67 -0.34 0.34 0 0 Z " fill="#256BB5" transform="translate(384,197)"/>
<path d="M0 0 C1.31672715 3.95018146 0.34516511 5.86168953 -0.875 9.8125 C-1.96214603 13.35902885 -2.95609588 16.68759135 -3.47265625 20.36328125 C-3.64667969 21.23339844 -3.82070313 22.10351562 -4 23 C-6.5625 24.375 -6.5625 24.375 -9 25 C-9 23.35 -9 21.7 -9 20 C-8.34 20 -7.68 20 -7 20 C-6.823479 19.42967041 -6.64695801 18.85934082 -6.46508789 18.27172852 C-5.66744801 15.7009727 -4.86504006 13.13173007 -4.0625 10.5625 C-3.64581055 9.21575195 -3.64581055 9.21575195 -3.22070312 7.84179688 C-2.95322266 6.98779297 -2.68574219 6.13378906 -2.41015625 5.25390625 C-2.04096069 4.06776733 -2.04096069 4.06776733 -1.66430664 2.85766602 C-1 1 -1 1 0 0 Z " fill="#179852" transform="translate(859,141)"/>
<path d="M0 0 C-2.92049501 2.92049501 -6.07880054 2.37975379 -10 2.5 C-16.49743585 2.77898052 -22.67284935 3.39878006 -29 5 C-22.54936916 -2.42738251 -8.97922316 -0.20052856 0 0 Z " fill="#2467BA" transform="translate(391,161)"/>
<path d="M0 0 C-3.65836295 1.27617312 -7.20755613 2.24151123 -11 3 C-12.010625 3.37125 -13.02125 3.7425 -14.0625 4.125 C-17.00047707 5.0001421 -18.19888659 5.07735131 -21 4 C-21 3.01 -21 2.02 -21 1 C-18.25240289 0.44208181 -15.50330968 -0.0967227 -12.75 -0.625 C-11.97269531 -0.78484375 -11.19539063 -0.9446875 -10.39453125 -1.109375 C-3.27568856 -2.44796081 -3.27568856 -2.44796081 0 0 Z " fill="#256EB2" transform="translate(78,187)"/>
<path d="M0 0 C6.63157895 6.44736842 6.63157895 6.44736842 9 10 C8.67 11.32 8.34 12.64 8 14 C-3.385 13.505 -3.385 13.505 -15 13 C-15 12.67 -15 12.34 -15 12 C-4.605 11.505 -4.605 11.505 6 11 C4.515 8.834375 4.515 8.834375 3 6.625 C0 2.25 0 2.25 0 0 Z " fill="#1752A6" transform="translate(510,188)"/>
<path d="M0 0 C0.66 0 1.32 0 2 0 C2.99 2.64 3.98 5.28 5 8 C5.66 6.35 6.32 4.7 7 3 C7.33 3 7.66 3 8 3 C8.17835515 7.54805635 7.99785435 10.8794254 6 15 C5.34 15 4.68 15 4 15 C3.32779649 13.06441401 2.66241923 11.12645628 2 9.1875 C1.62875 8.10855469 1.2575 7.02960938 0.875 5.91796875 C0 3 0 3 0 0 Z M4 9 C5 12 5 12 5 12 Z " fill="#1B9C5D" transform="translate(790,153)"/>
<path d="M0 0 C1.86890715 3.25501328 2.47265672 6.17418019 3 9.875 C3.65086333 14.10044606 4.44309306 17.99652501 6 22 C4 20.1875 4 20.1875 2 18 C2 17.01 2 16.02 2 15 C1.34 14.67 0.68 14.34 0 14 C-0.44921875 11.6015625 -0.44921875 11.6015625 -0.6875 8.625 C-0.77386719 7.64789063 -0.86023438 6.67078125 -0.94921875 5.6640625 C-1 3 -1 3 0 0 Z " fill="#2468BB" transform="translate(333,171)"/>
<path d="M0 0 C-0.33 0.99 -0.66 1.98 -1 3 C-2.08087891 2.90525391 -2.08087891 2.90525391 -3.18359375 2.80859375 C-7.47034198 3.09992615 -10.11700215 5.42002766 -13.59765625 7.78515625 C-16 9 -16 9 -18.30859375 8.68359375 C-18.86675781 8.45800781 -19.42492187 8.23242188 -20 8 C-17.80040031 6.65010869 -15.592162 5.3204828 -13.375 4 C-12.75753906 3.6184375 -12.14007813 3.236875 -11.50390625 2.84375 C-7.50391828 0.48586235 -4.7765094 -0.47030246 0 0 Z " fill="#2568BB" transform="translate(215,17)"/>
<path d="M0 0 C0 3 0 3 -1.90625 5.3046875 C-6.95437734 10.30719923 -11.66353297 14.71861529 -18 18 C-18.66 17.67 -19.32 17.34 -20 17 C-19.14277344 16.35933594 -18.28554687 15.71867188 -17.40234375 15.05859375 C-11.18362953 10.36889283 -5.33616784 5.70845862 0 0 Z " fill="#14954D" transform="translate(178,231)"/>
<path d="M0 0 C2.9821349 3.41060256 4.03836759 6.79386625 5.25 11.125 C5.60578125 12.36507812 5.9615625 13.60515625 6.328125 14.8828125 C7 18 7 18 6 20 C5.01 19.67 4.02 19.34 3 19 C2.87625 17.824375 2.7525 16.64875 2.625 15.4375 C2.14219837 11.48412433 1.10389833 7.82684755 0 4 C0 2.68 0 1.36 0 0 Z M4 17 C5 19 5 19 5 19 Z " fill="#1C975D" transform="translate(759,133)"/>
<path d="M0 0 C2 1 2 1 2.875 3.25 C5.00539001 8.45762003 8.56232089 11.67174067 13 15 C9.06830895 15 7.83572772 13.60580385 5 11 C5 10.34 5 9.68 5 9 C4.195625 8.773125 3.39125 8.54625 2.5625 8.3125 C0 7 0 7 -0.875 4.5 C-1 2 -1 2 0 0 Z " fill="#28A275" transform="translate(38,215)"/>
<path d="M0 0 C0.66 0.33 1.32 0.66 2 1 C0.27538679 2.92093521 -1.45442609 4.836722 -3.1875 6.75 C-3.67025391 7.28882813 -4.15300781 7.82765625 -4.65039062 8.3828125 C-7.56162205 11.58712091 -10.52706501 14.3841879 -14 17 C-12.38750996 13.32177947 -10.10253751 10.46975834 -7.5625 7.375 C-6.78003906 6.41335937 -5.99757812 5.45171875 -5.19140625 4.4609375 C-3 2 -3 2 0 0 Z " fill="#14974F" transform="translate(194,137)"/>
<path d="M0 0 C4.75186106 0.41928186 7.8242751 2.57858864 11 6 C12.9375 9.1875 12.9375 9.1875 14 12 C13.67 12.66 13.34 13.32 13 14 C9 9.25 9 9.25 9 7 C8.34 7 7.68 7 7 7 C5.62298702 5.71182656 4.29355827 4.37195574 3 3 C2.4225 2.4225 1.845 1.845 1.25 1.25 C0.8375 0.8375 0.425 0.425 0 0 Z " fill="#189856" transform="translate(711,131)"/>
<path d="M0 0 C1.73828125 0.13671875 1.73828125 0.13671875 4 1 C6.10546875 3.58203125 6.10546875 3.58203125 8.1875 6.8125 C9.22970703 8.39998047 9.22970703 8.39998047 10.29296875 10.01953125 C11.69937772 12.47511488 12.55310741 14.24527403 13 17 C10.04070881 14.24479785 7.96318174 11.53372712 6 8 C5.01 8.495 5.01 8.495 4 9 C3.896875 8.2575 3.79375 7.515 3.6875 6.75 C2.95746496 3.82985982 1.93210602 2.26812446 0 0 Z " fill="#2469B6" transform="translate(435,125)"/>
<path d="M0 0 C0.33 0.99 0.66 1.98 1 3 C-1.34495408 7.23895546 -3.90614975 10.37573702 -8 13 C-8.99 12.67 -9.98 12.34 -11 12 C-10.01 11.67 -9.02 11.34 -8 11 C-8 10.34 -8 9.68 -8 9 C-7.236875 8.401875 -6.47375 7.80375 -5.6875 7.1875 C-2.97196473 4.9771806 -1.61893758 3.06746068 0 0 Z " fill="#179B53" transform="translate(724,168)"/>
<path d="M0 0 C1.4540625 0.0309375 1.4540625 0.0309375 2.9375 0.0625 C2.6075 1.0525 2.2775 2.0425 1.9375 3.0625 C0.6175 2.7325 -0.7025 2.4025 -2.0625 2.0625 C-2.0625 5.3625 -2.0625 8.6625 -2.0625 12.0625 C-2.7225 12.0625 -3.3825 12.0625 -4.0625 12.0625 C-4.08937279 10.25007948 -4.10883715 8.43754767 -4.125 6.625 C-4.13660156 5.61566406 -4.14820313 4.60632813 -4.16015625 3.56640625 C-4.01596662 -0.13061575 -3.76355726 0.07680729 0 0 Z " fill="#149D53" transform="translate(562.0625,151.9375)"/>
<path d="M0 0 C1.20562578 3.61687735 0.38256859 4.57671118 -1.1640625 7.8828125 C-2.69908875 11.77058926 -3.29771961 15.89372524 -4 20 C-4.33 20 -4.66 20 -5 20 C-7.11573805 12.83904045 -4.20475583 7.47074902 -1 1 C-0.67 0.67 -0.34 0.34 0 0 Z " fill="#12924A" transform="translate(662,132)"/>
<path d="M0 0 C-10.18906606 6.88838269 -10.18906606 6.88838269 -17 6 C-14.55436688 3.55436688 -12.24474828 2.65868745 -9.0625 1.3125 C-8.00160156 0.85488281 -6.94070312 0.39726562 -5.84765625 -0.07421875 C-3 -1 -3 -1 0 0 Z " fill="#189756" transform="translate(129,226)"/>
<path d="M0 0 C1.35432675 1.31200404 2.68733482 2.64631404 4 4 C4 4.33 4 4.66 4 5 C-0.62 5 -5.24 5 -10 5 C-9.67 4.34 -9.34 3.68 -9 3 C-7.6078125 3.0928125 -7.6078125 3.0928125 -6.1875 3.1875 C-3.01604897 3.30894264 -3.01604897 3.30894264 -1.125 1.5 C-0.75375 1.005 -0.3825 0.51 0 0 Z " fill="#2A74E8" transform="translate(513,195)"/>
<path d="M0 0 C0 0.99 0 1.98 0 3 C-1.96875 4.82421875 -1.96875 4.82421875 -4.5 6.6875 C-5.3353125 7.31011719 -6.170625 7.93273437 -7.03125 8.57421875 C-7.6809375 9.04472656 -8.330625 9.51523438 -9 10 C-9.66 9.67 -10.32 9.34 -11 9 C-9.33333333 7.33333333 -7.66666667 5.66666667 -6 4 C-5.278125 3.236875 -4.55625 2.47375 -3.8125 1.6875 C-2 0 -2 0 0 0 Z " fill="#1D9E62" transform="translate(180,153)"/>
<path d="M0 0 C0 0.33 0 0.66 0 1 C-0.99580078 1.27263672 -0.99580078 1.27263672 -2.01171875 1.55078125 C-6.77574066 2.90696267 -10.82536306 4.26039451 -15 7 C-15.66 7 -16.32 7 -17 7 C-17 6.34 -17 5.68 -17 5 C-11.18524285 1.72408048 -6.75479274 -0.7342166 0 0 Z " fill="#169853" transform="translate(693,111)"/>
<path d="M0 0 C0.99 0.33 1.98 0.66 3 1 C-0.33333333 4.33333333 -3.66666667 7.66666667 -7 11 C-6.49697411 6.59852343 -4.97554199 4.24604581 -2 1 C-1.34 0.67 -0.68 0.34 0 0 Z " fill="#189E57" transform="translate(671,120)"/>
<path d="M0 0 C-1.53643852 3.68069887 -3.78150945 5.98775204 -6.625 8.75 C-7.85089844 9.94882813 -7.85089844 9.94882813 -9.1015625 11.171875 C-9.72804688 11.77515625 -10.35453125 12.3784375 -11 13 C-11 8.11204087 -7.59546598 5.63799926 -4.375 2.1875 C-2 0 -2 0 0 0 Z " fill="#1B59B4" transform="translate(127,116)"/>
<path d="M0 0 C0.33 0 0.66 0 1 0 C2.125 5.625 2.125 5.625 1 9 C-0.625 10.8125 -0.625 10.8125 -3 12 C-6.75 11.1875 -6.75 11.1875 -10 10 C-10 9.67 -10 9.34 -10 9 C-6.7 8.67 -3.4 8.34 0 8 C0 5.36 0 2.72 0 0 Z " fill="#2A71B9" transform="translate(215,100)"/>
<path d="M0 0 C0.99 0.33 1.98 0.66 3 1 C1.50260417 2.23697917 0.00520833 3.47395833 -1.4921875 4.7109375 C-2.71051161 5.75250992 -3.86660097 6.86660097 -5 8 C-5.99 8.66 -6.98 9.32 -8 10 C-8.99 9.67 -9.98 9.34 -11 9 C-9.23977508 7.46690087 -7.46646537 5.94881299 -5.6875 4.4375 C-4.70136719 3.59058594 -3.71523437 2.74367187 -2.69921875 1.87109375 C-1.80847656 1.25363281 -0.91773438 0.63617188 0 0 Z " fill="#2265B6" transform="translate(152,145)"/>
<path d="M0 0 C2.50630278 2.92961933 3.40528494 4.91187514 3.6875 8.75 C3.75324219 9.54921875 3.81898438 10.3484375 3.88671875 11.171875 C3.92410156 11.77515625 3.96148438 12.3784375 4 13 C2.015625 11.82421875 2.015625 11.82421875 0 10 C-0.390625 7.51953125 -0.390625 7.51953125 -0.25 4.8125 C-0.21390625 3.91144531 -0.1778125 3.01039063 -0.140625 2.08203125 C-0.07101562 1.05142578 -0.07101562 1.05142578 0 0 Z " fill="#1B965E" transform="translate(777,188)"/>
<path d="M0 0 C1.04449911 3.13349732 0.93423645 3.98968256 0 7 C-0.94875 6.979375 -1.8975 6.95875 -2.875 6.9375 C-5.90666283 6.77448174 -5.90666283 6.77448174 -8 8 C-7.67 7.01 -7.34 6.02 -7 5 C-6.01 4.67 -5.02 4.34 -4 4 C-3.34 4.33 -2.68 4.66 -2 5 C-1.34 3.35 -0.68 1.7 0 0 Z " fill="#2870B9" transform="translate(359,135)"/>
<path d="M0 0 C1.32 0.66 2.64 1.32 4 2 C0.74820188 4.21713508 -2.4213696 6.34832443 -6 8 C-4.95125002 5.37812506 -4.35068687 4.20628639 -1.875 2.75 C-1.25625 2.5025 -0.6375 2.255 0 2 C0 1.34 0 0.68 0 0 Z " fill="#1F9968" transform="translate(201,129)"/>
<path d="M0 0 C0.99 0 1.98 0 3 0 C3.99 3.3 4.98 6.6 6 10 C5.34 10.66 4.68 11.32 4 12 C2.39644899 8.49223216 1.77963136 5.85645121 2 2 C1.34 2 0.68 2 0 2 C0 1.34 0 0.68 0 0 Z " fill="#1E9965" transform="translate(822,148)"/>
<path d="M0 0 C0 0.66 0 1.32 0 2 C-1.4096347 2.70180531 -2.82807641 3.38593958 -4.25 4.0625 C-5.03890625 4.44535156 -5.8278125 4.82820312 -6.640625 5.22265625 C-9.25993522 6.08564091 -10.44855176 5.93045933 -13 5 C-11.21046815 4.16209211 -9.41830305 3.32980604 -7.625 2.5 C-6.62726563 2.0359375 -5.62953125 1.571875 -4.6015625 1.09375 C-2 0 -2 0 0 0 Z " fill="#15974D" transform="translate(157,249)"/>
<path d="M0 0 C0.66 0.33 1.32 0.66 2 1 C1.1875 2.9375 1.1875 2.9375 0 5 C-0.99 5.33 -1.98 5.66 -3 6 C-3.33 6.99 -3.66 7.98 -4 9 C-4.99 8.67 -5.98 8.34 -7 8 C-5.37660195 6.29115995 -3.70680947 4.62553283 -2 3 C-1.34 3 -0.68 3 0 3 C0 2.01 0 1.02 0 0 Z " fill="#246AB9" transform="translate(350,114)"/>
<path d="M0 0 C0.66 0.66 1.32 1.32 2 2 C1.195625 2.12375 0.39125 2.2475 -0.4375 2.375 C-1.7059375 2.684375 -1.7059375 2.684375 -3 3 C-3.33 3.66 -3.66 4.32 -4 5 C-4.99 5.33 -5.98 5.66 -7 6 C-7 5.01 -7 4.02 -7 3 C-4.69 2.01 -2.38 1.02 0 0 Z " fill="#2772B3" transform="translate(105,175)"/>
<path d="M0 0 C1.1875 1.5 1.1875 1.5 2 4 C1.27101296 6.78824238 0.1843275 9.37665092 -1 12 C-1.33 12 -1.66 12 -2 12 C-2.28571429 3.42857143 -2.28571429 3.42857143 0 0 Z " fill="#199D5A" transform="translate(865,119)"/>
<path d="M0 0 C0.66 0 1.32 0 2 0 C0.72278474 4.99275057 -1.17330957 7.57611908 -5 11 C-3.78065514 6.96678237 -2.44045073 3.45730521 0 0 Z " fill="#1F60B4" transform="translate(154,78)"/>
<path d="M0 0 C2 3 2 3 2 5 C0.35 5.66 -1.3 6.32 -3 7 C-3 5.35 -3 3.7 -3 2 C-2.34 2 -1.68 2 -1 2 C-0.67 1.34 -0.34 0.68 0 0 Z " fill="#1D9F63" transform="translate(853,159)"/>
<path d="M0 0 C1.31223496 3.93670488 0.24296256 6.12488144 -1 10 C-1.66 9.67 -2.32 9.34 -3 9 C-3 7.35 -3 5.7 -3 4 C-2.34 4 -1.68 4 -1 4 C-0.67 2.68 -0.34 1.36 0 0 Z " fill="#1A985C" transform="translate(809,121)"/>
<path d="M0 0 C2.39763185 2.39763185 2.34280586 3.33273498 2.625 6.625 C2.69976563 7.44226563 2.77453125 8.25953125 2.8515625 9.1015625 C2.90054688 9.72804687 2.94953125 10.35453125 3 11 C1.19874664 8.29811996 -0.00243753 6.06942297 -1 3 C-0.67 2.01 -0.34 1.02 0 0 Z " fill="#1B955A" transform="translate(837,190)"/>
<path d="M0 0 C2.97 0.495 2.97 0.495 6 1 C6 1.66 6 2.32 6 3 C2.25 4.125 2.25 4.125 0 3 C0 2.01 0 1.02 0 0 Z " fill="#3288B7" transform="translate(57,188)"/>
<path d="M0 0 C1.65 0 3.3 0 5 0 C5 0.33 5 0.66 5 1 C3.35 1 1.7 1 0 1 C0 0.67 0 0.34 0 0 Z " fill="#3BA7A2" transform="translate(596,129)"/>
<path d="M0 0 C1 4 1 4 1 4 Z " fill="#3BAA9C" transform="translate(531,147)"/>
<path d="M0 0 C4 1 4 1 4 1 Z " fill="#3BAA9C" transform="translate(584,129)"/>
<path d="M0 0 C4 1 4 1 4 1 Z " fill="#3BAA9C" transform="translate(575,129)"/>
<path d="" fill="#3BAA9C" transform="translate(0,0)"/>
<path d="M0 0 C3 1 3 1 3 1 Z " fill="#3BAA9C" transform="translate(50,192)"/>
<path d="M0 0 C3 1 3 1 3 1 Z " fill="#3BAA9C" transform="translate(46,192)"/>
<path d="M0 0 C3 1 3 1 3 1 Z " fill="#3BAA9C" transform="translate(34,192)"/>
<path d="" fill="#3BAA9C" transform="translate(0,0)"/>
<path d="M0 0 C0.99 0.495 0.99 0.495 2 1 C1.01 1.495 1.01 1.495 0 2 C0 1.34 0 0.68 0 0 Z " fill="#3BA7A1" transform="translate(851,156)"/>
<path d="M0 0 C3 1 3 1 3 1 Z " fill="#3BA7A1" transform="translate(372,145)"/>
<path d="M0 0 C3 1 3 1 3 1 Z " fill="#3BAA9C" transform="translate(368,145)"/>
<path d="M0 0 C3 1 3 1 3 1 Z " fill="#3BAA9C" transform="translate(354,143)"/>
<path d="" fill="#3BAA9C" transform="translate(0,0)"/>
<path d="M0 0 C3 1 3 1 3 1 Z " fill="#3BA7A1" transform="translate(564,129)"/>
<path d="" fill="#3BAA9C" transform="translate(0,0)"/>
<path d="M0 0 C2 1 2 1 2 1 Z " fill="#3BAA9C" transform="translate(88,238)"/>
<path d="" fill="#3CA6A4" transform="translate(0,0)"/>
<path d="" fill="#3BAA9C" transform="translate(0,0)"/>
<path d="" fill="#3BAA9C" transform="translate(0,0)"/>
<path d="" fill="#3BAA9C" transform="translate(0,0)"/>
<path d="M0 0 C2 1 2 1 2 1 Z " fill="#3CA6A4" transform="translate(692,177)"/>
<path d="" fill="#3BAA9C" transform="translate(0,0)"/>
<path d="" fill="#3BAA9C" transform="translate(0,0)"/>
<path d="M0 0 C2 1 2 1 2 1 Z " fill="#3CA6A4" transform="translate(824,161)"/>
<path d="" fill="#3BAA9C" transform="translate(0,0)"/>
<path d="" fill="#3BAA9C" transform="translate(0,0)"/>
<path d="" fill="#3BAA9C" transform="translate(0,0)"/>
<path d="" fill="#3BAA9C" transform="translate(0,0)"/>
<path d="" fill="#3CA6A4" transform="translate(0,0)"/>
<path d="" fill="#3BAA9C" transform="translate(0,0)"/>
<path d="M0 0 C2 1 2 1 2 1 Z " fill="#3BAA9C" transform="translate(157,144)"/>
<path d="" fill="#3CA6A4" transform="translate(0,0)"/>
<path d="M0 0 C2 1 2 1 2 1 Z " fill="#3CA6A4" transform="translate(714,135)"/>
<path d="M0 0 C2 1 2 1 2 1 Z " fill="#3BAA9C" transform="translate(692,135)"/>
<path d="" fill="#3BAA9C" transform="translate(0,0)"/>
<path d="M0 0 C2 1 2 1 2 1 Z " fill="#3CA6A4" transform="translate(580,129)"/>
<path d="M0 0 C2 1 2 1 2 1 Z " fill="#3BAA9C" transform="translate(572,129)"/>
<path d="M0 0 C2 1 2 1 2 1 Z " fill="#3BAA9C" transform="translate(569,129)"/>
<path d="" fill="#3BAA9C" transform="translate(0,0)"/>
<path d="" fill="#3BAA9C" transform="translate(0,0)"/>
<path d="" fill="#3CA6A4" transform="translate(0,0)"/>
<path d="" fill="#3BAA9C" transform="translate(0,0)"/>
<path d="M0 0 C2 1 2 1 2 1 Z " fill="#3BAA9C" transform="translate(344,102)"/>
<path d="" fill="#3BAA9C" transform="translate(0,0)"/>
<path d="" fill="#3BAA9C" transform="translate(0,0)"/>
<path d="" fill="#3BAA9C" transform="translate(0,0)"/>
<path d="M0 0 C2 1 2 1 2 1 Z " fill="#3BAA9C" transform="translate(192,25)"/>
<path d="" fill="#3BAA9C" transform="translate(0,0)"/>
<path d="" fill="#3BAA9C" transform="translate(0,0)"/>
<path d="" fill="#3BAA9C" transform="translate(0,0)"/>
<path d="" fill="#3BAA9C" transform="translate(0,0)"/>
<path d="" fill="#3BAA9C" transform="translate(0,0)"/>
<path d="" fill="#3BAA9C" transform="translate(0,0)"/>
<path d="" fill="#3BAA9C" transform="translate(0,0)"/>
<path d="" fill="#3DA3AC" transform="translate(0,0)"/>
<path d="" fill="#3BAA9C" transform="translate(0,0)"/>
<path d="" fill="#3BAA9C" transform="translate(0,0)"/>
<path d="" fill="#3DA3AC" transform="translate(0,0)"/>
<path d="" fill="#3BAA9C" transform="translate(0,0)"/>
<path d="" fill="#3DA3AC" transform="translate(0,0)"/>
<path d="" fill="#3BAA9C" transform="translate(0,0)"/>
<path d="" fill="#3BAA9C" transform="translate(0,0)"/>
<path d="" fill="#3BAA9C" transform="translate(0,0)"/>
<path d="" fill="#3BAA9C" transform="translate(0,0)"/>
<path d="" fill="#3BAA9C" transform="translate(0,0)"/>
<path d="" fill="#3BAA9C" transform="translate(0,0)"/>
<path d="" fill="#3BAA9C" transform="translate(0,0)"/>
<path d="" fill="#3BAA9C" transform="translate(0,0)"/>
<path d="" fill="#3BAA9C" transform="translate(0,0)"/>
<path d="" fill="#3BAA9C" transform="translate(0,0)"/>
<path d="" fill="#3BAA9C" transform="translate(0,0)"/>
<path d="" fill="#3BAA9C" transform="translate(0,0)"/>
<path d="" fill="#3BAA9C" transform="translate(0,0)"/>
<path d="" fill="#3BAA9C" transform="translate(0,0)"/>
<path d="" fill="#3BAA9C" transform="translate(0,0)"/>
<path d="" fill="#3DA3AC" transform="translate(0,0)"/>
<path d="" fill="#3BAA9C" transform="translate(0,0)"/>
<path d="" fill="#3BAA9C" transform="translate(0,0)"/>
<path d="" fill="#3BAA9C" transform="translate(0,0)"/>
<path d="" fill="#3BAA9C" transform="translate(0,0)"/>
<path d="" fill="#3BAA9C" transform="translate(0,0)"/>
<path d="" fill="#3BAA9C" transform="translate(0,0)"/>
<path d="" fill="#3DA3AC" transform="translate(0,0)"/>
<path d="" fill="#3BAA9C" transform="translate(0,0)"/>
<path d="" fill="#3BAA9C" transform="translate(0,0)"/>
<path d="" fill="#3BAA9C" transform="translate(0,0)"/>
<path d="" fill="#3BAA9C" transform="translate(0,0)"/>
<path d="" fill="#3BAA9C" transform="translate(0,0)"/>
<path d="" fill="#3BAA9C" transform="translate(0,0)"/>
<path d="" fill="#3BAA9C" transform="translate(0,0)"/>
<path d="" fill="#3BAA9C" transform="translate(0,0)"/>
<path d="" fill="#3BAA9C" transform="translate(0,0)"/>
<path d="" fill="#3BAA9C" transform="translate(0,0)"/>
<path d="" fill="#3BAA9C" transform="translate(0,0)"/>
<path d="" fill="#3BAA9C" transform="translate(0,0)"/>
<path d="" fill="#3BAA9C" transform="translate(0,0)"/>
<path d="" fill="#3BAA9C" transform="translate(0,0)"/>
<path d="" fill="#3BAA9C" transform="translate(0,0)"/>
<path d="" fill="#3BAA9C" transform="translate(0,0)"/>
<path d="" fill="#3BAA9C" transform="translate(0,0)"/>
<path d="" fill="#3BAA9C" transform="translate(0,0)"/>
<path d="" fill="#3BAA9C" transform="translate(0,0)"/>
<path d="" fill="#3BAA9C" transform="translate(0,0)"/>
<path d="" fill="#3BAA9C" transform="translate(0,0)"/>
<path d="" fill="#3BAA9C" transform="translate(0,0)"/>
<path d="" fill="#3BAA9C" transform="translate(0,0)"/>
<path d="" fill="#3BAA9C" transform="translate(0,0)"/>
<path d="" fill="#3BAA9C" transform="translate(0,0)"/>
<path d="" fill="#3BAA9C" transform="translate(0,0)"/>
<path d="" fill="#3DA3AC" transform="translate(0,0)"/>
<path d="" fill="#3BAA9C" transform="translate(0,0)"/>
<path d="" fill="#3BAA9C" transform="translate(0,0)"/>
<path d="" fill="#3BAA9C" transform="translate(0,0)"/>
<path d="" fill="#3BAA9C" transform="translate(0,0)"/>
<path d="" fill="#3BAA9C" transform="translate(0,0)"/>
<path d="" fill="#3BAA9C" transform="translate(0,0)"/>
<path d="" fill="#3BAA9C" transform="translate(0,0)"/>
<path d="" fill="#3DA3AC" transform="translate(0,0)"/>
<path d="" fill="#3BAA9C" transform="translate(0,0)"/>
<path d="" fill="#3BAA9C" transform="translate(0,0)"/>
<path d="" fill="#3BAA9C" transform="translate(0,0)"/>
<path d="" fill="#3BAA9C" transform="translate(0,0)"/>
<path d="" fill="#3BAA9C" transform="translate(0,0)"/>
<path d="" fill="#3BAA9C" transform="translate(0,0)"/>
<path d="" fill="#3BAA9C" transform="translate(0,0)"/>
<path d="" fill="#3BAA9C" transform="translate(0,0)"/>
<path d="" fill="#3BAA9C" transform="translate(0,0)"/>
<path d="" fill="#3BAA9C" transform="translate(0,0)"/>
<path d="" fill="#3BAA9C" transform="translate(0,0)"/>
<path d="" fill="#3BAA9C" transform="translate(0,0)"/>
<path d="" fill="#3BAA9C" transform="translate(0,0)"/>
<path d="" fill="#3BAA9C" transform="translate(0,0)"/>
<path d="" fill="#3BAA9C" transform="translate(0,0)"/>
<path d="" fill="#3BAA9C" transform="translate(0,0)"/>
<path d="" fill="#3BAA9C" transform="translate(0,0)"/>
<path d="" fill="#3BAA9C" transform="translate(0,0)"/>
<path d="" fill="#3BAA9C" transform="translate(0,0)"/>
<path d="" fill="#3BAA9C" transform="translate(0,0)"/>
<path d="" fill="#3BAA9C" transform="translate(0,0)"/>
<path d="" fill="#3BAA9C" transform="translate(0,0)"/>
<path d="" fill="#3DA3AC" transform="translate(0,0)"/>
<path d="" fill="#3BAA9C" transform="translate(0,0)"/>
<path d="" fill="#3BAA9C" transform="translate(0,0)"/>
<path d="" fill="#3BAA9C" transform="translate(0,0)"/>
<path d="" fill="#3BAA9C" transform="translate(0,0)"/>
<path d="" fill="#3BAA9C" transform="translate(0,0)"/>
<path d="" fill="#3BAA9C" transform="translate(0,0)"/>
<path d="" fill="#3BAA9C" transform="translate(0,0)"/>
<path d="" fill="#3BAA9C" transform="translate(0,0)"/>
<path d="" fill="#3BAA9C" transform="translate(0,0)"/>
<path d="" fill="#3DA3AC" transform="translate(0,0)"/>
<path d="" fill="#3DA3AC" transform="translate(0,0)"/>
<path d="" fill="#3BAA9C" transform="translate(0,0)"/>
<path d="" fill="#3BAA9C" transform="translate(0,0)"/>
<path d="" fill="#3DA3AC" transform="translate(0,0)"/>
<path d="" fill="#3BAA9C" transform="translate(0,0)"/>
<path d="" fill="#3BAA9C" transform="translate(0,0)"/>
<path d="" fill="#3BAA9C" transform="translate(0,0)"/>
<path d="" fill="#3BAA9C" transform="translate(0,0)"/>
<path d="" fill="#3BAA9C" transform="translate(0,0)"/>
<path d="" fill="#3BAA9C" transform="translate(0,0)"/>
<path d="" fill="#3DA3AC" transform="translate(0,0)"/>
<path d="" fill="#3BAA9C" transform="translate(0,0)"/>
<path d="" fill="#3BAA9C" transform="translate(0,0)"/>
<path d="" fill="#3BAA9C" transform="translate(0,0)"/>
<path d="" fill="#3BAA9C" transform="translate(0,0)"/>
<path d="" fill="#3DA3AC" transform="translate(0,0)"/>
<path d="" fill="#3BAA9C" transform="translate(0,0)"/>
<path d="" fill="#3BAA9C" transform="translate(0,0)"/>
<path d="" fill="#3BAA9C" transform="translate(0,0)"/>
<path d="" fill="#3BAA9C" transform="translate(0,0)"/>
<path d="" fill="#3BAA9C" transform="translate(0,0)"/>
<path d="" fill="#3BAA9C" transform="translate(0,0)"/>
<path d="" fill="#3BAA9C" transform="translate(0,0)"/>
<path d="" fill="#3BAA9C" transform="translate(0,0)"/>
<path d="" fill="#3DA3AC" transform="translate(0,0)"/>
<path d="" fill="#3BAA9C" transform="translate(0,0)"/>
<path d="" fill="#3BAA9C" transform="translate(0,0)"/>
<path d="" fill="#3BAA9C" transform="translate(0,0)"/>
<path d="" fill="#3BAA9C" transform="translate(0,0)"/>
<path d="" fill="#3BAA9C" transform="translate(0,0)"/>
<path d="" fill="#3BAA9C" transform="translate(0,0)"/>
<path d="" fill="#3BAA9C" transform="translate(0,0)"/>
<path d="" fill="#3BAA9C" transform="translate(0,0)"/>
<path d="" fill="#3BAA9C" transform="translate(0,0)"/>
<path d="" fill="#3BAA9C" transform="translate(0,0)"/>
<path d="" fill="#3BAA9C" transform="translate(0,0)"/>
<path d="" fill="#3BAA9C" transform="translate(0,0)"/>
<path d="" fill="#3BAA9C" transform="translate(0,0)"/>
<path d="" fill="#3BAA9C" transform="translate(0,0)"/>
<path d="" fill="#3BAA9C" transform="translate(0,0)"/>
<path d="" fill="#3BAA9C" transform="translate(0,0)"/>
<path d="" fill="#3BAA9C" transform="translate(0,0)"/>
<path d="" fill="#3BAA9C" transform="translate(0,0)"/>
<path d="" fill="#3BAA9C" transform="translate(0,0)"/>
<path d="" fill="#3BAA9C" transform="translate(0,0)"/>
<path d="" fill="#3BAA9C" transform="translate(0,0)"/>
<path d="" fill="#3BAA9C" transform="translate(0,0)"/>
<path d="" fill="#3BAA9C" transform="translate(0,0)"/>
<path d="" fill="#3BAA9C" transform="translate(0,0)"/>
<path d="" fill="#3BAA9C" transform="translate(0,0)"/>
<path d="" fill="#3BAA9C" transform="translate(0,0)"/>
<path d="" fill="#3BAA9C" transform="translate(0,0)"/>
<path d="" fill="#3BAA9C" transform="translate(0,0)"/>
<path d="" fill="#3BAA9C" transform="translate(0,0)"/>
</svg>
