<svg xmlns="http://www.w3.org/2000/svg" width="909" height="273" viewBox="0 0 909 273">
<!-- Arrow Top - Blue (#3b82f6) -->
<g fill="#3b82f6">
<path d="M 32.10 188.49 C29.67,187.74 27.32,186.53 26.86,185.81 C24.70,182.41 26.02,181.30 37.25,177.05 C65.24,166.46 93.27,148.53 115.34,127.11 C130.23,112.67 156.00,80.57 156.00,76.48 C156.00,75.84 151.84,73.09 146.75,70.35 C136.08,64.61 135.01,62.73 140.20,58.83 C143.81,56.12 162.34,45.04 185.00,32.06 C192.98,27.49 201.67,22.46 204.32,20.88 C209.90,17.54 212.53,17.26 213.91,19.84 C215.47,22.74 215.54,106.64 213.99,108.51 C211.84,111.10 208.13,110.15 200.66,105.11 L 193.42 100.22 L 186.24 109.86 C154.18,152.91 111.82,180.60 66.07,188.39 C54.71,190.33 38.14,190.38 32.10,188.49 Z"/>
</g>
<!-- Arrow Bottom - Green (#22c55e) -->
<g fill="#22c55e">
<path d="M 113.25 256.97 C110.11,255.71 110.45,253.34 114.03,251.48 C118.48,249.19 127.69,243.10 134.18,238.18 C143.44,231.15 158.93,211.30 157.80,207.91 C157.63,207.39 153.60,209.82 148.86,213.32 C133.20,224.86 116.00,232.48 99.07,235.38 C77.42,239.10 60.14,236.07 45.52,226.01 C43.02,224.29 40.25,221.78 39.37,220.44 C36.77,216.48 38.72,215.38 49.75,214.61 C69.37,213.24 85.05,209.98 101.50,203.84 C133.87,191.77 158.63,174.74 187.67,144.56 C200.42,131.31 202.04,129.95 203.90,130.94 C207.77,133.02 208.33,135.64 207.62,148.45 C206.74,164.48 204.65,178.62 201.61,189.07 C191.58,223.54 168.22,249.32 140.54,256.46 C134.04,258.14 116.95,258.46 113.25,256.97 Z"/>
</g>
<!-- "Tax" - Blue (#3b82f6) -->
<g fill="#3b82f6">
<path d="M 288.00 151.00 L 288.00 101.00 L 269.50 101.00 L 251.00 101.00 L 251.00 89.50 L 251.00 78.00 L 299.00 78.00 L 347.00 78.00 L 347.00 89.50 L 347.00 101.00 L 330.00 101.00 L 313.00 101.00 L 313.00 151.00 L 313.00 201.00 L 300.50 201.00 L 288.00 201.00 L 288.00 151.00 Z"/>
<path d="M 354.73 202.98 C341.32,199.59 333.65,190.09 333.69,176.90 C333.72,165.64 339.31,157.49 350.53,152.36 C357.24,149.29 362.99,148.26 378.33,147.41 L 391.00 146.71 L 391.00 143.60 C391.00,138.89 387.94,133.72 384.00,131.75 C379.00,129.25 368.52,129.38 364.24,132.00 C361.76,133.50 358.16,138.70 357.52,141.67 C357.44,142.04 339.11,135.44 338.50,134.83 C337.03,133.36 342.48,123.75 347.18,119.52 C355.19,112.33 361.07,110.54 376.50,110.61 C387.38,110.66 390.41,111.02 395.08,112.84 C402.63,115.78 408.31,120.90 411.68,127.78 C414.41,133.34 414.50,134.01 414.75,152.00 C414.90,162.18 415.12,177.36 415.26,185.75 L 415.50 201.00 L 404.31 201.00 L 393.12 201.00 L 392.45 196.49 L 391.77 191.99 L 388.64 195.12 C383.44,200.32 375.99,203.18 366.66,203.58 C362.17,203.77 356.81,203.50 354.73,202.98 ZM 381.82 182.46 C387.72,180.09 390.13,176.28 390.77,168.27 L 391.30 161.68 L 381.40 162.32 C365.53,163.34 359.87,165.77 358.46,172.19 C356.22,182.37 368.53,187.77 381.82,182.46 Z"/>
<path d="M 428.54 198.25 C431.49,193.67 451.08,165.80 454.64,161.13 C456.47,158.72 457.67,156.25 457.30,155.63 C456.19,153.77 439.09,129.10 432.83,120.34 C429.62,115.86 427.00,111.92 427.00,111.59 C427.00,111.27 433.28,111.00 440.96,111.00 C450.91,111.00 455.22,111.36 455.96,112.25 C457.30,113.86 471.83,136.09 472.44,137.46 C473.02,138.77 474.25,137.22 484.10,122.75 L 492.10 111.00 L 505.55 111.00 C513.78,111.00 519.00,111.39 519.00,111.99 C519.00,112.54 515.26,118.05 510.69,124.24 C501.65,136.48 489.87,152.79 488.69,154.69 C488.26,155.40 490.36,159.30 493.81,164.19 C512.11,190.16 519.00,200.09 519.00,200.52 C519.00,200.78 512.72,201.00 505.05,201.00 L 491.10 201.00 L 482.39 188.25 C477.60,181.24 473.39,175.16 473.03,174.74 C472.67,174.31 468.35,180.03 463.44,187.43 L 454.50 200.88 L 440.63 200.94 L 426.77 201.00 L 428.54 198.25 Z"/>
</g>
<!-- "Flow" - Green (#22c55e) -->
<g fill="#22c55e">
<path d="M 533.39 199.42 C533.73,198.55 534.00,170.87 534.00,137.92 L 534.00 78.00 L 570.50 78.00 L 607.00 78.00 L 607.00 89.50 L 607.00 101.00 L 583.50 101.00 L 560.00 101.00 L 560.00 116.00 L 560.00 131.00 L 581.50 131.00 L 603.00 131.00 L 603.00 142.50 L 603.00 154.00 L 581.50 154.00 L 560.00 154.00 L 560.00 177.50 L 560.00 201.00 L 546.39 201.00 C534.40,201.00 532.86,200.81 533.39,199.42 Z"/>
<path d="M 620.00 139.00 L 620.00 77.00 L 632.50 77.00 L 645.00 77.00 L 645.00 139.00 L 645.00 201.00 L 632.50 201.00 L 620.00 201.00 L 620.00 139.00 Z"/>
<path d="M 692.00 202.97 C669.04,198.14 653.38,174.33 656.88,149.58 C660.29,125.43 679.41,108.96 703.96,109.01 C728.98,109.07 747.92,124.88 751.33,148.58 C754.66,171.70 742.52,193.13 721.72,200.85 C715.04,203.33 699.11,204.47 692.00,202.97 ZM 711.50 180.88 C719.62,178.64 726.00,168.29 726.00,157.37 C726.00,138.25 714.56,128.14 696.91,131.67 C692.01,132.65 684.73,140.32 683.07,146.25 C681.22,152.87 682.07,165.35 684.74,170.50 C689.80,180.29 699.71,184.14 711.50,180.88 Z"/>
<path d="M 780.68 200.25 C780.26,199.53 753.81,117.86 752.49,113.22 L 751.85 110.94 L 765.16 111.22 L 778.47 111.50 L 782.80 126.00 C785.18,133.98 788.85,146.35 790.97,153.50 C793.08,160.65 795.04,165.82 795.31,165.00 C795.59,164.18 799.29,152.48 803.53,139.00 C807.78,125.53 811.67,113.70 812.18,112.72 C813.00,111.14 814.40,110.97 824.17,111.22 L 835.23 111.50 L 839.13 124.00 C841.27,130.88 844.86,142.57 847.11,150.00 C849.36,157.43 851.55,163.87 851.98,164.32 C852.40,164.78 853.03,163.64 853.38,161.81 C854.11,157.91 867.63,113.42 868.52,111.97 C869.16,110.94 894.00,110.57 894.00,111.60 C894.00,112.23 885.41,139.45 877.00,165.50 C874.34,173.75 870.74,185.11 869.00,190.75 L 865.84 201.00 L 852.96 201.00 L 840.07 201.00 L 836.19 188.75 C834.05,182.01 830.32,170.09 827.90,162.25 C825.48,154.41 823.24,148.00 822.93,148.00 C822.61,148.00 819.99,155.54 817.10,164.75 C814.21,173.96 810.44,185.89 808.71,191.25 L 805.57 201.00 L 793.35 201.00 C786.62,201.00 780.92,200.66 780.68,200.25 Z"/>
</g>
</svg>